<svg width="582" height="567" viewBox="0 0 582 567" fill="none" xmlns="http://www.w3.org/2000/svg">
<rect x="104.5" y="115.5" width="374" height="337" rx="45.5" stroke="white" stroke-width="25"/>
<path d="M246.655 209.712L245.753 210.574H247H270.251C275.47 210.574 279.659 214.611 279.659 219.542C279.659 224.475 275.467 228.51 270.251 228.51H247H245.753L246.655 229.371L263.095 245.08C266.758 248.581 266.758 254.246 263.095 257.746C259.419 261.259 253.45 261.259 249.774 257.746L233.334 242.037L232.488 241.229V242.398V264.615C232.488 269.549 228.296 273.583 223.08 273.583C217.86 273.583 213.671 269.545 213.671 264.615V242.398V241.229L212.826 242.037L196.386 257.746C192.71 261.259 186.741 261.259 183.065 257.746C179.401 254.246 179.401 248.581 183.065 245.08L199.505 229.371L200.406 228.51H199.159H175.909C170.689 228.51 166.5 224.475 166.5 219.542C166.5 214.608 170.692 210.574 175.909 210.574H199.159H200.406L199.505 209.712L183.065 194.003C179.401 190.503 179.401 184.838 183.065 181.337C186.741 177.825 192.71 177.825 196.386 181.337L212.826 197.046L213.671 197.854V196.685V174.468C213.671 169.535 217.863 165.5 223.08 165.5C228.299 165.5 232.488 169.538 232.488 174.468V196.685V197.854L233.334 197.046L249.774 181.337C253.45 177.825 259.419 177.825 263.095 181.337C266.758 184.838 266.758 190.503 263.095 194.003L246.655 209.712ZM370.432 368.284H370.72L370.865 368.035L383.468 346.321L383.613 346.07L383.468 345.819L370.865 324.106L370.72 323.857H370.432H345.317H345.029L344.885 324.106L332.281 345.819L332.136 346.07L332.281 346.321L344.885 368.035L345.029 368.284H345.317H370.432ZM361.35 167.519L414.094 268.327C415.342 270.712 413.546 273.583 410.665 273.583H305.176C302.294 273.583 300.499 270.712 301.746 268.327L354.491 167.519C355.899 164.827 359.941 164.827 361.35 167.519ZM166.5 309.427C166.5 303.047 170.135 297.66 175.115 296.505C186.939 293.764 207.928 289.458 223.08 289.458C238.232 289.458 259.22 293.764 271.045 296.505C276.024 297.66 279.659 303.047 279.659 309.427V381.045C279.659 387.186 276.284 392.44 271.529 393.797C259.861 397.127 238.613 402.5 223.08 402.5C207.546 402.5 186.299 397.127 174.631 393.797C169.876 392.44 166.5 387.186 166.5 381.045V309.427ZM301.341 345.979C301.341 314.78 326.688 289.458 357.92 289.458C389.153 289.458 414.5 314.78 414.5 345.979C414.5 377.178 389.153 402.5 357.92 402.5C326.688 402.5 301.341 377.178 301.341 345.979Z" fill="white" stroke="white"/>
</svg>
