<svg width="730" height="158" viewBox="0 0 730 158" fill="none" xmlns="http://www.w3.org/2000/svg">
<g filter="url(#filter0_d_4_3)">
<mask id="path-1-outside-1_4_3" maskUnits="userSpaceOnUse" x="4" y="-2" width="726" height="153" fill="black">
<rect fill="white" x="4" y="-2" width="726" height="153"/>
<path d="M137.937 119.028C141.255 123.175 142.353 127.884 141.231 133.154C140.109 138.473 137.4 142.572 133.106 145.451C129.007 147.891 124.591 148.988 119.858 148.744C115.174 148.549 110.709 147.476 106.464 145.524C100.95 142.986 96.2408 139.473 92.3371 134.984C88.4823 130.543 85.4569 125.517 83.2611 119.906C78.8694 108.488 76.6736 96.6546 76.6736 84.4068C76.5272 80.6495 76.7712 76.8434 77.4055 72.9885C75.5025 72.9397 73.6238 72.6957 71.7696 72.2565C69.7201 80.2103 67.2559 87.9933 64.377 95.6055C62.5227 100.485 60.0585 104.926 56.9844 108.927C53.9102 112.879 50.0065 116.027 45.2733 118.369C40.7353 120.565 35.88 121.809 30.7077 122.102C25.5841 122.443 20.7776 121.297 16.2884 118.662C12.1895 115.978 9.31056 112.367 7.65149 107.829C6.04122 103.291 5.72404 98.6552 6.69997 93.922C7.5295 89.8231 9.23736 86.139 11.8236 82.8697C14.4585 79.5515 17.9719 77.8681 22.3635 77.8193C23.2906 77.9169 23.9738 78.2341 24.413 78.7708C25.3401 79.6491 25.4621 80.7471 24.7789 82.0645C23.315 84.5531 23.1199 86.9198 24.1934 89.1644C25.3157 91.3602 27.1455 92.9705 29.6829 93.9952C35.4409 95.9958 40.2717 94.7027 44.1754 90.1159C45.9808 87.5297 47.4203 84.6507 48.4938 81.479C49.5674 78.3072 50.5677 75.2087 51.4948 72.1833C53.7882 65.3519 55.984 58.496 58.0823 51.6158C59.6925 45.9554 61.5468 40.3927 63.645 34.9275C64.5234 32.5853 65.5725 30.3407 66.7924 28.1936C68.0611 26.0466 69.7933 24.3143 71.9892 22.9969C75.2097 21.1426 78.4303 21.1182 81.6508 22.9237C83.0659 23.8996 83.871 25.0707 84.0662 26.437C84.2614 27.8033 84.1638 29.2672 83.7734 30.8286C82.6999 35.0739 81.4068 39.246 79.8941 43.3448C78.1375 48.81 76.5516 54.324 75.1365 59.8867C74.6486 61.6434 74.1606 63.4 73.6726 65.1567C78.4546 64.7663 82.6023 62.6437 86.1156 58.7888C89.6778 54.9339 92.2396 50.9082 93.801 46.7118C95.6553 41.8809 96.2896 37.0745 95.7041 32.2925C95.1185 27.4617 92.8983 23.2408 89.0434 19.6299C86.018 16.9949 82.6023 15.1407 78.7962 14.0672C74.9901 12.9449 71.1108 12.6033 67.1583 13.0424C63.0107 13.4816 59.0582 14.7015 55.3009 16.7022C51.5436 18.7028 48.4938 21.4598 46.1516 24.9731C44.8341 27.0225 43.785 29.5355 43.0043 32.5121C42.2723 35.4399 42.2479 38.1724 42.9311 40.7098C43.663 43.2472 45.5661 44.9307 48.6402 45.7602C49.9577 46.1994 50.6409 47.1021 50.6897 48.4684C50.6409 51.7378 49.543 54.5679 47.3959 56.9589C45.2489 59.3012 42.6139 61.0822 39.491 62.3021C36.4168 63.522 33.3914 64.0588 30.4149 63.9124C25.2913 63.3756 21.3144 61.3506 18.4842 57.8373C15.6541 54.2752 14.2146 50.0055 14.1658 45.0283C14.2634 36.733 16.7032 29.194 21.4852 22.4113C24.3154 18.654 27.6579 15.4335 31.5128 12.7497C35.4165 10.0171 39.5398 7.74807 43.8826 5.94261C53.0075 2.13651 62.5227 0.331058 72.4283 0.526242C82.8707 0.623834 92.4103 3.6248 101.047 9.52912C104.414 11.8225 107.293 14.5551 109.684 17.7269C112.075 20.8986 113.734 24.4851 114.661 28.4864C116.32 36.001 115.442 43.1984 112.026 50.0787C109.44 55.1047 106.024 59.5207 101.779 63.3268C97.5339 67.1329 92.7519 69.8655 87.4331 71.5246C87.7259 77.5753 89.0678 83.4308 91.4588 89.0912C93.8498 94.7515 96.924 99.8995 100.681 104.535C105.073 110.049 110.27 114.563 116.272 118.076C118.858 119.589 121.81 120.613 125.128 121.15C128.495 121.687 131.447 120.979 133.985 119.028C135.351 117.954 136.668 117.954 137.937 119.028ZM141.816 108.707C136.498 108.707 131.569 107.268 127.031 104.389C122.542 101.461 119.443 97.2645 117.736 91.7994C116.906 88.7252 116.491 85.5535 116.491 82.2841C116.491 77.3069 117.321 72.3053 118.98 67.2793C120.59 62.2533 122.835 57.6665 125.714 53.5188C128.593 49.3712 131.984 46.0286 135.888 43.4912C139.791 40.9538 144.012 39.6851 148.55 39.6851C152.259 39.6851 155.796 40.7098 159.163 42.7593C162.53 44.8087 164.702 47.9073 165.678 52.0549C165.922 53.226 166.044 54.3972 166.044 55.5683C166.044 58.5936 165.385 61.5214 164.067 64.3516C162.799 67.1329 161.14 69.6703 159.09 71.9638C156.943 74.4524 154.259 76.6482 151.039 78.5512C147.818 80.4543 144.525 81.4058 141.158 81.4058C140.133 81.4058 139.133 81.2838 138.157 81.0398C140.011 83.4796 142.426 85.3827 145.403 86.749C148.428 88.0665 151.478 88.7252 154.552 88.7252C157.529 88.7252 160.213 88.1153 162.604 86.8954C165.043 85.6267 167.239 84.0164 169.191 82.0645C171.192 80.0639 173.022 77.8681 174.681 75.4771C177.072 72.0613 178.975 68.3772 180.39 64.4248C180.634 63.7904 181 63.3268 181.488 63.0341C182.024 62.6925 182.561 62.5217 183.098 62.5217C183.83 62.5217 184.489 62.7413 185.074 63.1805C185.66 63.6196 185.952 64.2052 185.952 64.9371C185.952 65.2299 185.904 65.5715 185.806 65.9618C182.586 75.0867 178.072 83.4308 172.265 90.9942C166.458 98.5088 159.432 103.876 151.185 107.097C148.111 108.17 144.988 108.707 141.816 108.707ZM135.668 71.305C141.036 70.8658 145.549 68.5968 149.209 64.4979C150.575 62.9365 151.771 61.1798 152.796 59.228C153.82 57.2273 154.333 55.2023 154.333 53.1528C154.137 50.713 152.698 49.4931 150.014 49.4931C148.843 49.4931 147.696 49.7615 146.574 50.2983C145.452 50.7862 144.476 51.3962 143.646 52.1281C140.914 54.3728 138.913 57.2273 137.644 60.6918C136.376 64.1564 135.717 67.6941 135.668 71.305ZM193.345 108.561C191.198 108.561 189.075 108.268 186.977 107.683C184.928 107.048 183.025 106.072 181.268 104.755C178.682 102.754 176.876 100.363 175.852 97.5817C174.827 94.8003 174.315 91.897 174.315 88.8716C174.315 86.5782 174.534 84.2848 174.973 81.9914C176.584 73.8424 178.609 65.791 181.048 57.8373C183.683 48.7124 186.636 39.6851 189.905 30.7554L181.707 30.609C180.683 30.5602 179.829 30.1943 179.145 29.5111C178.413 28.7792 178.048 27.9009 178.048 26.8761C178.291 24.6315 179.56 23.3872 181.854 23.1432L192.833 23.2896C194.053 20.2155 195.346 17.1413 196.712 14.0672C197.493 12.1641 198.395 10.3099 199.42 8.50441C200.494 6.65015 201.884 5.08868 203.592 3.81998C205.495 2.60008 207.691 1.99013 210.18 1.99013C212.327 1.99013 214.352 2.47809 216.255 3.45401C218.158 4.42993 219.475 5.91821 220.207 7.91885V8.21163C220.207 8.89478 219.915 9.62672 219.329 10.4075C218.743 11.1882 218.377 11.6518 218.231 11.7981C216.035 14.7747 214.059 18.7028 212.302 23.5824L221.452 23.6556C222.525 23.7044 223.403 24.0948 224.087 24.8267C224.819 25.5586 225.185 26.437 225.185 27.4617C225.136 28.5352 224.745 29.4379 224.013 30.1699C223.282 30.853 222.428 31.1946 221.452 31.1946L209.594 31.0482C204.666 45.0527 201.079 59.35 198.835 73.94C198.542 75.3063 198.395 76.7946 198.395 78.4048C198.395 80.2103 198.737 81.9426 199.42 83.6016C200.152 84.9191 201.152 85.8218 202.421 86.3098C203.69 86.749 205.081 86.9686 206.593 86.9686C209.57 86.9686 212.302 86.2366 214.791 84.7727C217.28 83.3088 219.549 81.4058 221.598 79.0636C223.647 76.7214 225.453 74.2084 227.014 71.5246C228.625 68.792 229.991 66.157 231.113 63.6196C231.65 62.6437 232.333 62.1557 233.163 62.1557C233.895 62.1557 234.578 62.4485 235.212 63.0341C235.895 63.6196 236.237 64.3516 236.237 65.2299C236.237 65.6203 236.139 66.035 235.944 66.4742C231.504 76.4774 225.746 85.7243 218.67 94.2148C216.426 96.8498 214.01 99.2408 211.424 101.388C208.887 103.535 206.105 105.267 203.08 106.585C200.103 107.902 196.858 108.561 193.345 108.561ZM257.902 108.707C254.389 108.707 251.046 107.756 247.875 105.853C245.581 104.291 243.898 102.339 242.824 99.9971C241.751 97.6061 241.214 95.0687 241.214 92.3849C241.604 86.139 243.093 80.1127 245.679 74.306C248.314 68.4504 251.266 62.3509 254.535 56.0074C252.047 56.0074 249.558 55.8854 247.07 55.6415C244.581 55.3975 242.263 54.7143 240.116 53.592C239.043 57.7885 237.798 61.863 236.383 65.8154C235.798 67.1817 234.895 67.8649 233.675 67.8649C232.992 67.8649 232.333 67.5965 231.699 67.0597C231.113 66.523 230.821 65.8642 230.821 65.0835C230.821 64.8395 230.869 64.5711 230.967 64.2784C232.87 59.0084 234.309 53.9336 235.285 49.054C234.114 46.9069 233.529 44.6379 233.529 42.2469C233.529 40.9294 233.773 39.5875 234.261 38.2212C234.797 36.8062 235.529 35.635 236.456 34.7079C237.432 33.7808 238.603 33.3172 239.97 33.3172C241.482 33.3172 242.434 34.1712 242.824 35.879C243.947 36.4158 244.971 36.7574 245.899 36.9037C246.826 37.0501 247.875 37.1965 249.046 37.3429H249.119C251.656 37.6357 254.169 37.8309 256.658 37.9285C262.27 38.1724 267.857 38.3676 273.42 38.514C274.883 38.758 275.762 39.4899 276.054 40.7098C276.298 41.2466 276.42 41.8565 276.42 42.5397C276.42 43.906 276.152 45.2479 275.615 46.5654C274.005 51.2498 272.37 56.0562 270.711 60.9846C269.101 65.913 267.906 70.817 267.125 75.6967C266.832 77.1605 266.686 78.6488 266.686 80.1615C266.686 82.1133 267.174 83.7724 268.15 85.1387C269.174 86.505 270.711 87.1881 272.761 87.1881C274.664 87.1881 276.494 86.7002 278.25 85.7243C280.056 84.6995 281.642 83.5772 283.008 82.3573C285.887 79.8687 288.18 77.1361 289.888 74.1596C291.596 71.1342 293.109 67.8405 294.426 64.2784C294.67 63.644 295.036 63.1805 295.524 62.8877C296.061 62.5949 296.622 62.4485 297.208 62.4485C297.891 62.4485 298.525 62.6681 299.111 63.1073C299.696 63.4976 299.989 64.0588 299.989 64.7907C299.989 65.1323 299.94 65.4739 299.843 65.8154C298.867 68.4016 297.793 70.939 296.622 73.4276C296.28 74.5011 295.744 75.5991 295.012 76.7214C292.328 82.2353 289.083 87.3833 285.277 92.1653C281.471 96.9474 276.957 101.022 271.736 104.389C267.344 107.268 262.733 108.707 257.902 108.707ZM729.2 14.3599L728.907 14.2867L729.2 14.3599ZM313.31 108.707C312.334 108.707 311.334 108.658 310.309 108.561C305.43 107.829 301.502 105.999 298.525 103.071C295.597 100.144 293.475 96.5814 292.157 92.3849C290.791 88.1397 290.108 83.8212 290.108 79.4296C290.108 74.4524 290.888 69.5971 292.45 64.8639C294.011 60.0819 296.183 55.7878 298.964 51.9817C301.794 48.1268 305.137 45.0527 308.992 42.7593C312.896 40.4659 317.141 39.3192 321.728 39.3192C324.704 39.3192 327.534 39.9047 330.218 41.0758C332.902 42.1981 335.269 43.9304 337.318 46.2726C338.684 47.7365 340.002 49.9567 341.27 52.9333C342.686 57.1297 343.393 61.497 343.393 66.035C343.393 69.1092 343.149 72.1589 342.661 75.1843C343.393 75.3307 344.149 75.4039 344.93 75.4039C347.126 75.4039 349.078 74.8671 350.786 73.7936C352.542 72.7201 354.079 71.2806 355.397 69.4751C356.714 67.5721 357.764 65.6935 358.544 63.8392L358.325 64.2784C358.91 62.8633 359.813 62.1557 361.033 62.1557C361.716 62.1557 362.35 62.4241 362.936 62.9609C363.57 63.4976 363.887 64.1808 363.887 65.0103C363.887 65.2543 363.839 65.4983 363.741 65.7422C362.033 70.4267 359.105 74.5987 354.958 78.2584C350.81 81.8694 345.955 83.9676 340.392 84.5531C338.977 88.652 337.025 92.5313 334.537 96.191C332.048 99.8507 329.023 102.852 325.461 105.194C321.898 107.536 317.848 108.707 313.31 108.707ZM318.507 86.6758C320.41 86.6758 322.094 86.1634 323.557 85.1387C325.021 84.0652 326.29 82.6989 327.364 81.0398C324.582 79.088 323.192 76.6482 323.192 73.7204C323.192 71.3294 324.07 69.3532 325.827 67.7917C327.583 66.2302 329.706 65.3763 332.194 65.2299V65.3031L332.268 62.8145C332.268 60.3747 331.902 57.7885 331.17 55.0559C330.487 52.2745 329.169 50.4447 327.217 49.5663C326.583 49.4199 325.949 49.3468 325.314 49.3468C323.997 49.3468 322.704 49.6883 321.435 50.3715C319.093 51.7378 317.214 53.714 315.799 56.3002C314.433 58.8376 313.384 61.375 312.652 63.9124C312.164 65.3763 311.7 67.2061 311.261 69.402C310.822 71.5978 310.602 73.818 310.602 76.0626C310.602 78.7464 311.114 81.113 312.139 83.1625C313.164 85.2119 315.067 86.383 317.848 86.6758H318.507Z"/>
</mask>
<path d="M137.937 119.028C141.255 123.175 142.353 127.884 141.231 133.154C140.109 138.473 137.4 142.572 133.106 145.451C129.007 147.891 124.591 148.988 119.858 148.744C115.174 148.549 110.709 147.476 106.464 145.524C100.95 142.986 96.2408 139.473 92.3371 134.984C88.4823 130.543 85.4569 125.517 83.2611 119.906C78.8694 108.488 76.6736 96.6546 76.6736 84.4068C76.5272 80.6495 76.7712 76.8434 77.4055 72.9885C75.5025 72.9397 73.6238 72.6957 71.7696 72.2565C69.7201 80.2103 67.2559 87.9933 64.377 95.6055C62.5227 100.485 60.0585 104.926 56.9844 108.927C53.9102 112.879 50.0065 116.027 45.2733 118.369C40.7353 120.565 35.88 121.809 30.7077 122.102C25.5841 122.443 20.7776 121.297 16.2884 118.662C12.1895 115.978 9.31056 112.367 7.65149 107.829C6.04122 103.291 5.72404 98.6552 6.69997 93.922C7.5295 89.8231 9.23736 86.139 11.8236 82.8697C14.4585 79.5515 17.9719 77.8681 22.3635 77.8193C23.2906 77.9169 23.9738 78.2341 24.413 78.7708C25.3401 79.6491 25.4621 80.7471 24.7789 82.0645C23.315 84.5531 23.1199 86.9198 24.1934 89.1644C25.3157 91.3602 27.1455 92.9705 29.6829 93.9952C35.4409 95.9958 40.2717 94.7027 44.1754 90.1159C45.9808 87.5297 47.4203 84.6507 48.4938 81.479C49.5674 78.3072 50.5677 75.2087 51.4948 72.1833C53.7882 65.3519 55.984 58.496 58.0823 51.6158C59.6925 45.9554 61.5468 40.3927 63.645 34.9275C64.5234 32.5853 65.5725 30.3407 66.7924 28.1936C68.0611 26.0466 69.7933 24.3143 71.9892 22.9969C75.2097 21.1426 78.4303 21.1182 81.6508 22.9237C83.0659 23.8996 83.871 25.0707 84.0662 26.437C84.2614 27.8033 84.1638 29.2672 83.7734 30.8286C82.6999 35.0739 81.4068 39.246 79.8941 43.3448C78.1375 48.81 76.5516 54.324 75.1365 59.8867C74.6486 61.6434 74.1606 63.4 73.6726 65.1567C78.4546 64.7663 82.6023 62.6437 86.1156 58.7888C89.6778 54.9339 92.2396 50.9082 93.801 46.7118C95.6553 41.8809 96.2896 37.0745 95.7041 32.2925C95.1185 27.4617 92.8983 23.2408 89.0434 19.6299C86.018 16.9949 82.6023 15.1407 78.7962 14.0672C74.9901 12.9449 71.1108 12.6033 67.1583 13.0424C63.0107 13.4816 59.0582 14.7015 55.3009 16.7022C51.5436 18.7028 48.4938 21.4598 46.1516 24.9731C44.8341 27.0225 43.785 29.5355 43.0043 32.5121C42.2723 35.4399 42.2479 38.1724 42.9311 40.7098C43.663 43.2472 45.5661 44.9307 48.6402 45.7602C49.9577 46.1994 50.6409 47.1021 50.6897 48.4684C50.6409 51.7378 49.543 54.5679 47.3959 56.9589C45.2489 59.3012 42.6139 61.0822 39.491 62.3021C36.4168 63.522 33.3914 64.0588 30.4149 63.9124C25.2913 63.3756 21.3144 61.3506 18.4842 57.8373C15.6541 54.2752 14.2146 50.0055 14.1658 45.0283C14.2634 36.733 16.7032 29.194 21.4852 22.4113C24.3154 18.654 27.6579 15.4335 31.5128 12.7497C35.4165 10.0171 39.5398 7.74807 43.8826 5.94261C53.0075 2.13651 62.5227 0.331058 72.4283 0.526242C82.8707 0.623834 92.4103 3.6248 101.047 9.52912C104.414 11.8225 107.293 14.5551 109.684 17.7269C112.075 20.8986 113.734 24.4851 114.661 28.4864C116.32 36.001 115.442 43.1984 112.026 50.0787C109.44 55.1047 106.024 59.5207 101.779 63.3268C97.5339 67.1329 92.7519 69.8655 87.4331 71.5246C87.7259 77.5753 89.0678 83.4308 91.4588 89.0912C93.8498 94.7515 96.924 99.8995 100.681 104.535C105.073 110.049 110.27 114.563 116.272 118.076C118.858 119.589 121.81 120.613 125.128 121.15C128.495 121.687 131.447 120.979 133.985 119.028C135.351 117.954 136.668 117.954 137.937 119.028ZM141.816 108.707C136.498 108.707 131.569 107.268 127.031 104.389C122.542 101.461 119.443 97.2645 117.736 91.7994C116.906 88.7252 116.491 85.5535 116.491 82.2841C116.491 77.3069 117.321 72.3053 118.98 67.2793C120.59 62.2533 122.835 57.6665 125.714 53.5188C128.593 49.3712 131.984 46.0286 135.888 43.4912C139.791 40.9538 144.012 39.6851 148.55 39.6851C152.259 39.6851 155.796 40.7098 159.163 42.7593C162.53 44.8087 164.702 47.9073 165.678 52.0549C165.922 53.226 166.044 54.3972 166.044 55.5683C166.044 58.5936 165.385 61.5214 164.067 64.3516C162.799 67.1329 161.14 69.6703 159.09 71.9638C156.943 74.4524 154.259 76.6482 151.039 78.5512C147.818 80.4543 144.525 81.4058 141.158 81.4058C140.133 81.4058 139.133 81.2838 138.157 81.0398C140.011 83.4796 142.426 85.3827 145.403 86.749C148.428 88.0665 151.478 88.7252 154.552 88.7252C157.529 88.7252 160.213 88.1153 162.604 86.8954C165.043 85.6267 167.239 84.0164 169.191 82.0645C171.192 80.0639 173.022 77.8681 174.681 75.4771C177.072 72.0613 178.975 68.3772 180.39 64.4248C180.634 63.7904 181 63.3268 181.488 63.0341C182.024 62.6925 182.561 62.5217 183.098 62.5217C183.83 62.5217 184.489 62.7413 185.074 63.1805C185.66 63.6196 185.952 64.2052 185.952 64.9371C185.952 65.2299 185.904 65.5715 185.806 65.9618C182.586 75.0867 178.072 83.4308 172.265 90.9942C166.458 98.5088 159.432 103.876 151.185 107.097C148.111 108.17 144.988 108.707 141.816 108.707ZM135.668 71.305C141.036 70.8658 145.549 68.5968 149.209 64.4979C150.575 62.9365 151.771 61.1798 152.796 59.228C153.82 57.2273 154.333 55.2023 154.333 53.1528C154.137 50.713 152.698 49.4931 150.014 49.4931C148.843 49.4931 147.696 49.7615 146.574 50.2983C145.452 50.7862 144.476 51.3962 143.646 52.1281C140.914 54.3728 138.913 57.2273 137.644 60.6918C136.376 64.1564 135.717 67.6941 135.668 71.305ZM193.345 108.561C191.198 108.561 189.075 108.268 186.977 107.683C184.928 107.048 183.025 106.072 181.268 104.755C178.682 102.754 176.876 100.363 175.852 97.5817C174.827 94.8003 174.315 91.897 174.315 88.8716C174.315 86.5782 174.534 84.2848 174.973 81.9914C176.584 73.8424 178.609 65.791 181.048 57.8373C183.683 48.7124 186.636 39.6851 189.905 30.7554L181.707 30.609C180.683 30.5602 179.829 30.1943 179.145 29.5111C178.413 28.7792 178.048 27.9009 178.048 26.8761C178.291 24.6315 179.56 23.3872 181.854 23.1432L192.833 23.2896C194.053 20.2155 195.346 17.1413 196.712 14.0672C197.493 12.1641 198.395 10.3099 199.42 8.50441C200.494 6.65015 201.884 5.08868 203.592 3.81998C205.495 2.60008 207.691 1.99013 210.18 1.99013C212.327 1.99013 214.352 2.47809 216.255 3.45401C218.158 4.42993 219.475 5.91821 220.207 7.91885V8.21163C220.207 8.89478 219.915 9.62672 219.329 10.4075C218.743 11.1882 218.377 11.6518 218.231 11.7981C216.035 14.7747 214.059 18.7028 212.302 23.5824L221.452 23.6556C222.525 23.7044 223.403 24.0948 224.087 24.8267C224.819 25.5586 225.185 26.437 225.185 27.4617C225.136 28.5352 224.745 29.4379 224.013 30.1699C223.282 30.853 222.428 31.1946 221.452 31.1946L209.594 31.0482C204.666 45.0527 201.079 59.35 198.835 73.94C198.542 75.3063 198.395 76.7946 198.395 78.4048C198.395 80.2103 198.737 81.9426 199.42 83.6016C200.152 84.9191 201.152 85.8218 202.421 86.3098C203.69 86.749 205.081 86.9686 206.593 86.9686C209.57 86.9686 212.302 86.2366 214.791 84.7727C217.28 83.3088 219.549 81.4058 221.598 79.0636C223.647 76.7214 225.453 74.2084 227.014 71.5246C228.625 68.792 229.991 66.157 231.113 63.6196C231.65 62.6437 232.333 62.1557 233.163 62.1557C233.895 62.1557 234.578 62.4485 235.212 63.0341C235.895 63.6196 236.237 64.3516 236.237 65.2299C236.237 65.6203 236.139 66.035 235.944 66.4742C231.504 76.4774 225.746 85.7243 218.67 94.2148C216.426 96.8498 214.01 99.2408 211.424 101.388C208.887 103.535 206.105 105.267 203.08 106.585C200.103 107.902 196.858 108.561 193.345 108.561ZM257.902 108.707C254.389 108.707 251.046 107.756 247.875 105.853C245.581 104.291 243.898 102.339 242.824 99.9971C241.751 97.6061 241.214 95.0687 241.214 92.3849C241.604 86.139 243.093 80.1127 245.679 74.306C248.314 68.4504 251.266 62.3509 254.535 56.0074C252.047 56.0074 249.558 55.8854 247.07 55.6415C244.581 55.3975 242.263 54.7143 240.116 53.592C239.043 57.7885 237.798 61.863 236.383 65.8154C235.798 67.1817 234.895 67.8649 233.675 67.8649C232.992 67.8649 232.333 67.5965 231.699 67.0597C231.113 66.523 230.821 65.8642 230.821 65.0835C230.821 64.8395 230.869 64.5711 230.967 64.2784C232.87 59.0084 234.309 53.9336 235.285 49.054C234.114 46.9069 233.529 44.6379 233.529 42.2469C233.529 40.9294 233.773 39.5875 234.261 38.2212C234.797 36.8062 235.529 35.635 236.456 34.7079C237.432 33.7808 238.603 33.3172 239.97 33.3172C241.482 33.3172 242.434 34.1712 242.824 35.879C243.947 36.4158 244.971 36.7574 245.899 36.9037C246.826 37.0501 247.875 37.1965 249.046 37.3429H249.119C251.656 37.6357 254.169 37.8309 256.658 37.9285C262.27 38.1724 267.857 38.3676 273.42 38.514C274.883 38.758 275.762 39.4899 276.054 40.7098C276.298 41.2466 276.42 41.8565 276.42 42.5397C276.42 43.906 276.152 45.2479 275.615 46.5654C274.005 51.2498 272.37 56.0562 270.711 60.9846C269.101 65.913 267.906 70.817 267.125 75.6967C266.832 77.1605 266.686 78.6488 266.686 80.1615C266.686 82.1133 267.174 83.7724 268.15 85.1387C269.174 86.505 270.711 87.1881 272.761 87.1881C274.664 87.1881 276.494 86.7002 278.25 85.7243C280.056 84.6995 281.642 83.5772 283.008 82.3573C285.887 79.8687 288.18 77.1361 289.888 74.1596C291.596 71.1342 293.109 67.8405 294.426 64.2784C294.67 63.644 295.036 63.1805 295.524 62.8877C296.061 62.5949 296.622 62.4485 297.208 62.4485C297.891 62.4485 298.525 62.6681 299.111 63.1073C299.696 63.4976 299.989 64.0588 299.989 64.7907C299.989 65.1323 299.94 65.4739 299.843 65.8154C298.867 68.4016 297.793 70.939 296.622 73.4276C296.28 74.5011 295.744 75.5991 295.012 76.7214C292.328 82.2353 289.083 87.3833 285.277 92.1653C281.471 96.9474 276.957 101.022 271.736 104.389C267.344 107.268 262.733 108.707 257.902 108.707ZM729.2 14.3599L728.907 14.2867L729.2 14.3599ZM313.31 108.707C312.334 108.707 311.334 108.658 310.309 108.561C305.43 107.829 301.502 105.999 298.525 103.071C295.597 100.144 293.475 96.5814 292.157 92.3849C290.791 88.1397 290.108 83.8212 290.108 79.4296C290.108 74.4524 290.888 69.5971 292.45 64.8639C294.011 60.0819 296.183 55.7878 298.964 51.9817C301.794 48.1268 305.137 45.0527 308.992 42.7593C312.896 40.4659 317.141 39.3192 321.728 39.3192C324.704 39.3192 327.534 39.9047 330.218 41.0758C332.902 42.1981 335.269 43.9304 337.318 46.2726C338.684 47.7365 340.002 49.9567 341.27 52.9333C342.686 57.1297 343.393 61.497 343.393 66.035C343.393 69.1092 343.149 72.1589 342.661 75.1843C343.393 75.3307 344.149 75.4039 344.93 75.4039C347.126 75.4039 349.078 74.8671 350.786 73.7936C352.542 72.7201 354.079 71.2806 355.397 69.4751C356.714 67.5721 357.764 65.6935 358.544 63.8392L358.325 64.2784C358.91 62.8633 359.813 62.1557 361.033 62.1557C361.716 62.1557 362.35 62.4241 362.936 62.9609C363.57 63.4976 363.887 64.1808 363.887 65.0103C363.887 65.2543 363.839 65.4983 363.741 65.7422C362.033 70.4267 359.105 74.5987 354.958 78.2584C350.81 81.8694 345.955 83.9676 340.392 84.5531C338.977 88.652 337.025 92.5313 334.537 96.191C332.048 99.8507 329.023 102.852 325.461 105.194C321.898 107.536 317.848 108.707 313.31 108.707ZM318.507 86.6758C320.41 86.6758 322.094 86.1634 323.557 85.1387C325.021 84.0652 326.29 82.6989 327.364 81.0398C324.582 79.088 323.192 76.6482 323.192 73.7204C323.192 71.3294 324.07 69.3532 325.827 67.7917C327.583 66.2302 329.706 65.3763 332.194 65.2299V65.3031L332.268 62.8145C332.268 60.3747 331.902 57.7885 331.17 55.0559C330.487 52.2745 329.169 50.4447 327.217 49.5663C326.583 49.4199 325.949 49.3468 325.314 49.3468C323.997 49.3468 322.704 49.6883 321.435 50.3715C319.093 51.7378 317.214 53.714 315.799 56.3002C314.433 58.8376 313.384 61.375 312.652 63.9124C312.164 65.3763 311.7 67.2061 311.261 69.402C310.822 71.5978 310.602 73.818 310.602 76.0626C310.602 78.7464 311.114 81.113 312.139 83.1625C313.164 85.2119 315.067 86.383 317.848 86.6758H318.507Z" fill="white"/>
<path d="M137.937 119.028L139.499 117.778L139.377 117.626L139.229 117.501L137.937 119.028ZM141.231 133.154L139.275 132.737L139.274 132.741L141.231 133.154ZM133.106 145.451L134.129 147.169L134.175 147.142L134.22 147.112L133.106 145.451ZM119.858 148.744L119.961 146.747L119.951 146.747L119.941 146.746L119.858 148.744ZM106.464 145.524L105.628 147.341L105.628 147.341L106.464 145.524ZM92.3371 134.984L90.8269 136.295L90.8279 136.296L92.3371 134.984ZM83.2611 119.906L81.3943 120.624L81.3986 120.635L83.2611 119.906ZM76.6736 84.4068H78.6736V84.3678L78.6721 84.3289L76.6736 84.4068ZM77.4055 72.9885L79.379 73.3132L79.7518 71.048L77.4568 70.9891L77.4055 72.9885ZM71.7696 72.2565L72.2305 70.3104L70.3222 69.8584L69.8328 71.7575L71.7696 72.2565ZM64.377 95.6055L66.2465 96.3159L66.2477 96.313L64.377 95.6055ZM56.9844 108.927L58.5631 110.155L58.5703 110.145L56.9844 108.927ZM45.2733 118.369L46.1444 120.169L46.1524 120.165L46.1603 120.161L45.2733 118.369ZM30.7077 122.102L30.5946 120.105L30.5846 120.106L30.5746 120.106L30.7077 122.102ZM16.2884 118.662L15.1928 120.335L15.2338 120.362L15.276 120.386L16.2884 118.662ZM7.65149 107.829L5.76663 108.498L5.76982 108.507L5.77309 108.516L7.65149 107.829ZM6.69997 93.922L8.65878 94.3259L8.66022 94.3187L6.69997 93.922ZM11.8236 82.8697L10.2573 81.6259L10.255 81.6289L11.8236 82.8697ZM22.3635 77.8193L22.5729 75.8303L22.4574 75.8181L22.3413 75.8194L22.3635 77.8193ZM24.413 78.7708L22.865 80.0373L22.9454 80.1355L23.0375 80.2227L24.413 78.7708ZM24.7789 82.0645L26.5028 83.0786L26.5299 83.0326L26.5544 82.9852L24.7789 82.0645ZM24.1934 89.1644L22.3891 90.0273L22.4005 90.0511L22.4125 90.0746L24.1934 89.1644ZM29.6829 93.9952L28.934 95.8497L28.9798 95.8682L29.0265 95.8844L29.6829 93.9952ZM44.1754 90.1159L45.6985 91.4121L45.7605 91.3392L45.8153 91.2608L44.1754 90.1159ZM51.4948 72.1833L49.5988 71.5468L49.5903 71.572L49.5826 71.5973L51.4948 72.1833ZM58.0823 51.6158L59.9953 52.1992L60.0008 52.1812L60.0059 52.163L58.0823 51.6158ZM63.645 34.9275L65.5122 35.6443L65.5149 35.6371L65.5177 35.6297L63.645 34.9275ZM66.7924 28.1936L65.0705 27.1762L65.0619 27.1908L65.0535 27.2056L66.7924 28.1936ZM71.9892 22.9969L70.9912 21.2636L70.9756 21.2726L70.9602 21.2819L71.9892 22.9969ZM81.6508 22.9237L82.7863 21.2772L82.7098 21.2245L82.6288 21.1791L81.6508 22.9237ZM83.7734 30.8286L85.7124 31.3189L85.7137 31.3137L83.7734 30.8286ZM79.8941 43.3448L78.0178 42.6524L78.0031 42.6923L77.9901 42.7328L79.8941 43.3448ZM75.1365 59.8867L77.0636 60.422L77.0694 60.401L77.0748 60.3798L75.1365 59.8867ZM73.6726 65.1567L71.7456 64.6214L70.9784 67.3833L73.8354 67.1501L73.6726 65.1567ZM86.1156 58.7888L84.6467 57.4314L84.6375 57.4416L86.1156 58.7888ZM93.801 46.7118L91.9339 45.9951L91.9302 46.0047L91.9266 46.0143L93.801 46.7118ZM95.7041 32.2925L93.7186 32.5332L93.7189 32.5356L95.7041 32.2925ZM89.0434 19.6299L90.4107 18.1703L90.3843 18.1455L90.357 18.1218L89.0434 19.6299ZM78.7962 14.0672L78.2306 15.9855L78.2419 15.9888L78.2533 15.9921L78.7962 14.0672ZM67.1583 13.0424L67.3689 15.0314L67.3792 15.0302L67.1583 13.0424ZM46.1516 24.9731L44.4875 23.8637L44.4783 23.8776L44.4693 23.8916L46.1516 24.9731ZM43.0043 32.5121L41.0697 32.0047L41.0668 32.0158L41.064 32.027L43.0043 32.5121ZM42.9311 40.7098L40.9998 41.2298L41.0045 41.247L41.0094 41.2642L42.9311 40.7098ZM48.6402 45.7602L49.2727 43.8629L49.2175 43.8445L49.1613 43.8293L48.6402 45.7602ZM50.6897 48.4684L52.6894 48.4983L52.6902 48.4476L52.6884 48.397L50.6897 48.4684ZM47.3959 56.9589L48.8702 58.3104L48.8772 58.3028L48.884 58.2952L47.3959 56.9589ZM39.491 62.3021L38.7632 60.4392L38.7533 60.4431L39.491 62.3021ZM30.4149 63.9124L30.2065 65.9015L30.2614 65.9073L30.3166 65.91L30.4149 63.9124ZM18.4842 57.8373L16.9183 59.0815L16.9267 59.0919L18.4842 57.8373ZM14.1658 45.0283L12.1659 45.0048L12.1657 45.0263L12.1659 45.0479L14.1658 45.0283ZM21.4852 22.4113L19.8877 21.208L19.8687 21.2331L19.8506 21.2589L21.4852 22.4113ZM31.5128 12.7497L32.6555 14.3911L32.6597 14.3881L31.5128 12.7497ZM43.8826 5.94261L44.6504 7.78938L44.6525 7.78847L43.8826 5.94261ZM72.4283 0.526241L72.3889 2.52586L72.3993 2.52606L72.4096 2.52615L72.4283 0.526241ZM101.047 9.52913L99.9185 11.1802L99.9213 11.1821L101.047 9.52913ZM114.661 28.4864L116.614 28.0552L116.612 28.0451L116.61 28.035L114.661 28.4864ZM112.026 50.0787L113.805 50.9938L113.811 50.981L113.818 50.968L112.026 50.0787ZM87.4331 71.5246L86.8376 69.6153L85.3607 70.076L85.4355 71.6212L87.4331 71.5246ZM100.681 104.535L102.246 103.289L102.24 103.282L102.235 103.276L100.681 104.535ZM116.272 118.076L115.261 119.802L115.262 119.802L116.272 118.076ZM125.128 121.15L124.809 123.125L124.813 123.125L125.128 121.15ZM133.985 119.028L135.204 120.613L135.212 120.607L135.22 120.6L133.985 119.028ZM136.375 120.277C139.313 123.949 140.274 128.044 139.275 132.737L143.187 133.571C144.432 127.724 143.198 122.402 139.499 117.778L136.375 120.277ZM139.274 132.741C138.253 137.579 135.83 141.217 131.993 143.79L134.22 147.112C138.971 143.926 141.964 139.367 143.188 133.567L139.274 132.741ZM132.083 143.732C128.322 145.971 124.297 146.971 119.961 146.747L119.755 150.742C124.886 151.006 129.693 149.81 134.129 147.169L132.083 143.732ZM119.941 146.746C115.516 146.562 111.307 145.549 107.299 143.707L105.628 147.341C110.111 149.402 114.831 150.537 119.775 150.743L119.941 146.746ZM107.3 143.707C102.038 141.286 97.5601 137.942 93.8464 133.672L90.8279 136.296C94.9215 141.004 99.8614 144.687 105.628 147.341L107.3 143.707ZM93.8474 133.673C90.1461 129.409 87.2382 124.581 85.1236 119.177L81.3986 120.635C83.6756 126.454 86.8184 131.678 90.8269 136.295L93.8474 133.673ZM85.1278 119.188C80.8243 107.999 78.6736 96.4094 78.6736 84.4068H74.6736C74.6736 96.8998 76.9145 108.976 81.3944 120.624L85.1278 119.188ZM78.6721 84.3289C78.5311 80.7114 78.7657 77.0403 79.379 73.3132L75.4321 72.6637C74.7767 76.6465 74.5233 80.5875 74.6751 84.4846L78.6721 84.3289ZM77.4568 70.9891C75.6919 70.9439 73.9505 70.7177 72.2305 70.3104L71.3086 74.2027C73.2971 74.6736 75.3131 74.9355 77.3543 74.9878L77.4568 70.9891ZM69.8328 71.7575C67.8014 79.6413 65.3592 87.3546 62.5063 94.898L66.2477 96.313C69.1527 88.6319 71.6389 80.7793 73.7063 72.7556L69.8328 71.7575ZM62.5074 94.895C60.72 99.5987 58.3497 103.867 55.3984 107.708L58.5703 110.145C61.7673 105.984 64.3254 101.371 66.2465 96.3159L62.5074 94.895ZM55.4057 107.699C52.5267 111.4 48.8645 114.36 44.3863 116.576L46.1603 120.161C51.1486 117.693 55.2938 114.358 58.5631 110.155L55.4057 107.699ZM44.4022 116.569C40.108 118.646 35.5113 119.827 30.5946 120.105L30.8207 124.099C36.2488 123.791 41.3625 122.483 46.1444 120.169L44.4022 116.569ZM30.5746 120.106C25.8572 120.421 21.4491 119.372 17.3008 116.937L15.276 120.386C20.1062 123.222 25.311 124.466 30.8407 124.097L30.5746 120.106ZM17.384 116.988C13.64 114.537 11.0388 111.27 9.52989 107.142L5.77309 108.516C7.58227 113.464 10.739 117.419 15.1928 120.335L17.384 116.988ZM9.53635 107.16C8.04865 102.967 7.75629 98.7029 8.65876 94.3259L4.74117 93.5181C3.6918 98.6076 4.03379 103.614 5.76663 108.498L9.53635 107.16ZM8.66022 94.3187C9.42758 90.5271 11.0017 87.1323 13.3921 84.1105L10.255 81.6289C7.47303 85.1457 5.63142 89.1192 4.73971 93.5253L8.66022 94.3187ZM13.3898 84.1134C15.6347 81.2866 18.5709 79.8615 22.3857 79.8192L22.3413 75.8194C17.3728 75.8746 13.2824 77.8165 10.2573 81.6259L13.3898 84.1134ZM22.1541 79.8083C22.7428 79.8703 22.8614 80.0329 22.865 80.0373L25.9609 77.5043C25.0861 76.4352 23.8385 75.9635 22.5729 75.8303L22.1541 79.8083ZM23.0375 80.2227C23.1338 80.314 23.1746 80.3779 23.1908 80.4085C23.2052 80.4356 23.2098 80.4534 23.212 80.4739C23.2167 80.5157 23.2241 80.7184 23.0034 81.1439L26.5544 82.9852C27.0169 82.0932 27.3049 81.0882 27.1876 80.0321C27.0664 78.9413 26.5386 78.0296 25.7884 77.3189L23.0375 80.2227ZM23.0551 81.0505C21.3166 84.0059 20.9791 87.079 22.3891 90.0273L25.9976 88.3015C25.2607 86.7605 25.3135 85.1004 26.5028 83.0786L23.0551 81.0505ZM22.4125 90.0746C23.7784 92.747 26.0027 94.6659 28.934 95.8497L30.4319 92.1407C28.2883 91.2751 26.853 89.9734 25.9742 88.2542L22.4125 90.0746ZM29.0265 95.8844C32.1998 96.987 35.262 97.2287 38.1417 96.4578C41.0234 95.6864 43.5383 93.9503 45.6985 91.4121L42.6523 88.8197C40.9088 90.8683 39.0564 92.0722 37.1074 92.5939C35.1562 93.1161 32.924 93.004 30.3394 92.106L29.0265 95.8844ZM45.8153 91.2608C47.7354 88.5103 49.2579 85.46 50.3883 82.1202L46.5994 80.8378C45.5828 83.8415 44.2262 86.5491 42.5355 88.9711L45.8153 91.2608ZM50.3883 82.1202C51.4676 78.9312 52.4739 75.8142 53.407 72.7693L49.5826 71.5973C48.6614 74.6032 47.6671 77.6833 46.5994 80.8378L50.3883 82.1202ZM53.3908 72.8198C55.6901 65.9708 57.8916 59.0972 59.9953 52.1992L56.1693 51.0324C54.0765 57.8948 51.8863 64.733 49.5988 71.5468L53.3908 72.8198ZM60.0059 52.163C61.6 46.5597 63.4354 41.0536 65.5122 35.6443L61.7779 34.2107C59.6582 39.7318 57.7851 45.3511 56.1586 51.0685L60.0059 52.163ZM65.5177 35.6297C66.3595 33.3849 67.3641 31.2359 68.5313 29.1817L65.0535 27.2056C63.7809 29.4454 62.6872 31.7857 61.7724 34.2253L65.5177 35.6297ZM68.5142 29.2111C69.6089 27.3585 71.0998 25.8629 73.0182 24.7118L70.9602 21.2819C68.4869 22.7658 66.5132 24.7347 65.0705 27.1762L68.5142 29.2111ZM72.9871 24.7301C75.6019 23.2246 78.0718 23.2101 80.6728 24.6682L82.6288 21.1791C78.7887 19.0263 74.8175 19.0606 70.9912 21.2636L72.9871 24.7301ZM80.5153 24.5701C81.5918 25.3125 81.9886 26.0362 82.0863 26.7198L86.0461 26.1541C85.7534 24.1052 84.5399 22.4867 82.7863 21.2772L80.5153 24.5701ZM82.0863 26.7198C82.2393 27.7911 82.171 28.992 81.8331 30.3436L85.7137 31.3137C86.1565 29.5424 86.2834 27.8154 86.0461 26.1541L82.0863 26.7198ZM81.8345 30.3383C80.7782 34.5153 79.506 38.6199 78.0178 42.6524L81.7704 44.0373C83.3076 39.872 84.6216 35.6325 85.7124 31.3189L81.8345 30.3383ZM77.9901 42.7328C76.2208 48.2373 74.6235 53.7909 73.1982 59.3936L77.0748 60.3798C78.4797 54.857 80.0542 49.3827 81.7982 43.9568L77.9901 42.7328ZM73.2095 59.3514C73.1835 59.445 73.144 59.5873 73.118 59.6808C73.092 59.7743 73.0525 59.9166 73.0265 60.0102C73.0005 60.1037 72.961 60.246 72.935 60.3395C72.909 60.4331 72.8695 60.5754 72.8435 60.6689C72.8175 60.7625 72.778 60.9048 72.752 60.9983C72.726 61.0918 72.6865 61.2341 72.6605 61.3277C72.6345 61.4212 72.595 61.5635 72.569 61.657C72.543 61.7506 72.5035 61.8929 72.4775 61.9864C72.2426 62.8321 71.9805 63.7757 71.7456 64.6214L75.5997 65.692C75.6256 65.5984 75.6652 65.4561 75.6912 65.3626C75.7171 65.2691 75.7567 65.1268 75.7827 65.0332C75.8086 64.9397 75.8482 64.7974 75.8741 64.7039C75.9001 64.6103 75.9397 64.468 75.9656 64.3745C75.9916 64.281 76.0312 64.1386 76.0571 64.0451C76.0831 63.9516 76.1226 63.8093 76.1486 63.7157C76.1746 63.6222 76.2141 63.4799 76.2401 63.3864C76.2661 63.2928 76.3056 63.1505 76.3316 63.057C76.5665 62.2113 76.8286 61.2677 77.0636 60.422L73.2095 59.3514ZM73.8354 67.1501C79.1678 66.7148 83.7719 64.3295 87.5938 60.136L84.6375 57.4416C81.4327 60.9579 77.7415 62.8179 73.5099 63.1633L73.8354 67.1501ZM87.5845 60.1461C91.2935 56.1323 94.0089 51.8883 95.6755 47.4092L91.9266 46.0143C90.4702 49.9282 88.062 53.7355 84.6467 57.4315L87.5845 60.1461ZM95.6682 47.4285C97.6308 42.3154 98.3175 37.18 97.6892 32.0494L93.7189 32.5356C94.2618 36.969 93.6798 41.4465 91.9339 45.9951L95.6682 47.4285ZM97.6895 32.0518C97.0425 26.7136 94.5769 22.0728 90.4107 18.1703L87.6761 21.0896C91.2197 24.4088 93.1946 28.2098 93.7186 32.5332L97.6895 32.0518ZM90.357 18.1218C87.112 15.2955 83.434 13.2972 79.3391 12.1423L78.2533 15.9921C81.7706 16.9841 84.9241 18.6943 87.7298 21.1381L90.357 18.1218ZM79.3619 12.1488C75.3003 10.9512 71.1536 10.5862 66.9375 11.0547L67.3792 15.0302C71.0681 14.6203 74.68 14.9385 78.2306 15.9855L79.3619 12.1488ZM66.9478 11.0536C62.5395 11.5203 58.34 12.8181 54.3609 14.9368L56.2409 18.4675C59.7764 16.5849 63.4818 15.4429 67.3689 15.0313L66.9478 11.0536ZM54.3609 14.9368C50.3142 17.0916 47.0147 20.0729 44.4875 23.8637L47.8157 26.0825C49.973 22.8466 52.773 20.314 56.2409 18.4675L54.3609 14.9368ZM44.4693 23.8916C43.0127 26.1574 41.8904 28.8756 41.0697 32.0047L44.9388 33.0195C45.6796 30.1954 46.6556 27.8877 47.834 26.0546L44.4693 23.8916ZM41.064 32.027C40.2619 35.2355 40.2158 38.3176 40.9998 41.2298L44.8623 40.1899C44.2801 38.0273 44.2828 35.6442 44.9446 32.9972L41.064 32.027ZM41.0094 41.2642C41.9778 44.621 44.5318 46.7232 48.1192 47.6912L49.1613 43.8293C46.6003 43.1382 45.3483 41.8735 44.8527 40.1555L41.0094 41.2642ZM48.0078 47.6576C48.3712 47.7787 48.4985 47.9109 48.5459 47.9735C48.5915 48.0338 48.6781 48.1808 48.6909 48.5398L52.6884 48.397C52.6524 47.3898 52.3731 46.4022 51.7355 45.5598C51.0998 44.7197 50.2268 44.1809 49.2727 43.8629L48.0078 47.6576ZM48.6899 48.4386C48.6482 51.2342 47.726 53.5979 45.9078 55.6227L48.884 58.2952C51.3599 55.5379 52.6336 52.2413 52.6894 48.4983L48.6899 48.4386ZM45.9216 55.6075C43.9925 57.712 41.6176 59.3242 38.7633 60.4392L40.2187 64.165C43.6102 62.8402 46.5053 60.8903 48.8702 58.3104L45.9216 55.6075ZM38.7533 60.4431C35.9153 61.5693 33.1744 62.0457 30.5131 61.9148L30.3166 65.91C33.6085 66.0719 36.9183 65.4747 40.2286 64.1611L38.7533 60.4431ZM30.6233 61.9233C25.9475 61.4334 22.4896 59.6214 20.0417 56.5826L16.9267 59.0919C20.1392 63.0798 24.6351 65.3178 30.2065 65.9015L30.6233 61.9233ZM20.0501 56.5931C17.5233 53.4128 16.2105 49.5852 16.1657 45.0087L12.1659 45.0479C12.2186 50.4258 13.7848 55.1375 16.9183 59.0814L20.0501 56.5931ZM16.1656 45.0518C16.2585 37.1612 18.5708 30.0158 23.1198 23.5637L19.8506 21.2589C14.8355 28.3721 12.2683 36.3047 12.1659 45.0048L16.1656 45.0518ZM23.0827 23.6146C25.7856 20.0262 28.9747 16.9536 32.6555 14.3911L30.3701 11.1083C26.3411 13.9133 22.8451 17.2817 19.8877 21.208L23.0827 23.6146ZM32.6597 14.3881C36.4465 11.7374 40.4428 9.53859 44.6504 7.78938L43.1148 4.09584C38.6367 5.95755 34.3865 8.29678 30.3659 11.1112L32.6597 14.3881ZM44.6525 7.78847C53.5207 4.08947 62.7602 2.33612 72.3889 2.52586L72.4677 -1.47337C62.2852 -1.67401 52.4943 0.183563 43.1127 4.09675L44.6525 7.78847ZM72.4096 2.52615C82.4548 2.62004 91.6082 5.49914 99.9185 11.1802L102.176 7.87805C93.2124 1.75045 83.2866 -1.37237 72.447 -1.47367L72.4096 2.52615ZM99.9213 11.1821C103.112 13.3557 105.831 15.9379 108.087 18.9308L111.281 16.5229C108.755 13.1723 105.716 10.2893 102.173 7.87616L99.9213 11.1821ZM108.087 18.9308C110.304 21.8714 111.847 25.1997 112.713 28.9379L116.61 28.035C115.622 23.7706 113.846 19.9258 111.281 16.5229L108.087 18.9308ZM112.708 28.9176C114.269 35.9874 113.447 42.7188 110.235 49.1894L113.818 50.968C117.437 43.6781 118.372 36.0147 116.614 28.0552L112.708 28.9176ZM110.248 49.1636C107.774 53.9709 104.509 58.1929 100.444 61.8377L103.114 64.816C107.539 60.8486 111.106 56.2385 113.805 50.9938L110.248 49.1636ZM100.444 61.8377C96.4072 65.4569 91.8761 68.0437 86.8376 69.6153L88.0287 73.4339C93.6278 71.6874 98.6606 68.8089 103.114 64.816L100.444 61.8377ZM85.4355 71.6212C85.7398 77.9099 87.1354 83.9959 89.6164 89.8694L93.3012 88.3129C91.0002 82.8657 89.7121 77.2407 89.4308 71.4279L85.4355 71.6212ZM89.6164 89.8694C92.0784 95.6977 95.2484 101.009 99.1275 105.794L102.235 103.276C98.5995 98.7905 95.6213 93.8053 93.3012 88.3129L89.6164 89.8694ZM99.1168 105.781C103.66 111.485 109.044 116.163 115.261 119.802L117.282 116.35C111.496 112.963 106.486 108.613 102.246 103.289L99.1168 105.781ZM115.262 119.802C118.085 121.454 121.277 122.553 124.809 123.125L125.448 119.176C122.343 118.674 119.63 117.724 117.281 116.35L115.262 119.802ZM124.813 123.125C128.684 123.742 132.2 122.924 135.204 120.613L132.765 117.442C130.695 119.035 128.306 119.632 125.443 119.175L124.813 123.125ZM135.22 120.6C135.664 120.252 135.912 120.222 135.997 120.222C136.07 120.222 136.275 120.241 136.645 120.554L139.229 117.501C138.331 116.741 137.242 116.222 135.997 116.222C134.766 116.222 133.672 116.73 132.749 117.455L135.22 120.6ZM127.031 104.389L125.939 106.064L125.949 106.071L125.96 106.078L127.031 104.389ZM117.736 91.7994L115.805 92.3204L115.815 92.3584L115.827 92.3959L117.736 91.7994ZM118.98 67.2793L120.879 67.9062L120.882 67.8979L120.884 67.8895L118.98 67.2793ZM135.888 43.4912L134.798 41.8143L135.888 43.4912ZM165.678 52.0549L167.636 51.647L167.63 51.6219L167.625 51.5969L165.678 52.0549ZM164.067 64.3516L162.254 63.5075L162.251 63.5145L162.248 63.5215L164.067 64.3516ZM159.09 71.9638L157.599 70.6311L157.587 70.6441L157.576 70.6573L159.09 71.9638ZM138.157 81.0398L138.642 79.0995L133.121 77.7194L136.564 82.25L138.157 81.0398ZM145.403 86.749L144.569 88.5666L144.586 88.5748L144.604 88.5826L145.403 86.749ZM162.604 86.8954L163.512 88.6769L163.519 88.6734L163.526 88.6698L162.604 86.8954ZM169.191 82.0645L167.777 80.6503L169.191 82.0645ZM174.681 75.4771L173.042 74.3301L173.037 74.3369L174.681 75.4771ZM180.39 64.4248L178.523 63.7068L178.515 63.7286L178.507 63.7506L180.39 64.4248ZM181.488 63.0341L182.517 64.749L182.539 64.7355L182.561 64.7214L181.488 63.0341ZM185.806 65.9618L187.692 66.6275L187.723 66.5385L187.746 66.4469L185.806 65.9618ZM172.265 90.9942L173.848 92.2171L173.852 92.2122L172.265 90.9942ZM151.185 107.097L151.845 108.985L151.879 108.973L151.913 108.96L151.185 107.097ZM135.668 71.305L133.668 71.278L133.639 73.4777L135.831 73.2983L135.668 71.305ZM149.209 64.4979L150.701 65.83L150.708 65.8225L150.714 65.815L149.209 64.4979ZM152.796 59.228L154.566 60.1576L154.571 60.1487L154.576 60.1397L152.796 59.228ZM154.333 53.1528H156.333V53.073L156.326 52.9934L154.333 53.1528ZM146.574 50.2983L147.371 52.1324L147.404 52.1181L147.437 52.1025L146.574 50.2983ZM143.646 52.1281L144.916 53.6736L144.943 53.6512L144.969 53.6278L143.646 52.1281ZM137.644 60.6918L139.522 61.3796L137.644 60.6918ZM141.816 106.707C136.881 106.707 132.324 105.378 128.103 102.7L125.96 106.078C130.815 109.158 136.114 110.707 141.816 110.707V106.707ZM128.124 102.714C124.051 100.058 121.224 96.2572 119.644 91.2028L115.827 92.3959C117.663 98.2719 121.033 102.864 125.939 106.064L128.124 102.714ZM119.666 91.2783C118.884 88.3786 118.491 85.3822 118.491 82.2841H114.491C114.491 85.7247 114.928 89.0719 115.805 92.3204L119.666 91.2783ZM118.491 82.2841C118.491 77.5331 119.282 72.7428 120.879 67.9062L117.081 66.6524C115.359 71.8678 114.491 77.0808 114.491 82.2841H118.491ZM120.884 67.8895C122.437 63.0437 124.596 58.6369 127.357 54.6592L124.071 52.3784C121.074 56.6961 118.743 61.463 117.075 66.6691L120.884 67.8895ZM127.357 54.6592C130.1 50.7064 133.309 47.5527 136.978 45.1681L134.798 41.8143C130.659 44.5046 127.085 48.0359 124.071 52.3784L127.357 54.6592ZM136.978 45.1681C140.566 42.8358 144.41 41.6851 148.55 41.6851V37.6851C143.615 37.6851 139.017 39.0719 134.798 41.8143L136.978 45.1681ZM148.55 41.6851C151.869 41.6851 155.049 42.5965 158.124 44.4677L160.203 41.0509C156.544 38.8232 152.649 37.6851 148.55 37.6851V41.6851ZM158.124 44.4677C160.993 46.2146 162.867 48.84 163.731 52.513L167.625 51.5969C166.537 46.9745 164.067 43.4028 160.203 41.0509L158.124 44.4677ZM163.72 52.4628C163.936 53.5027 164.044 54.5371 164.044 55.5683H168.044C168.044 54.2572 167.907 52.9494 167.636 51.647L163.72 52.4628ZM164.044 55.5683C164.044 58.2926 163.453 60.933 162.254 63.5075L165.881 65.1956C167.317 62.1097 168.044 58.8946 168.044 55.5683H164.044ZM162.248 63.5215C161.063 66.1187 159.515 68.4868 157.599 70.6311L160.582 73.2964C162.764 70.8539 164.534 68.1472 165.887 65.1816L162.248 63.5215ZM157.576 70.6573C155.589 72.9604 153.08 75.0218 150.021 76.8294L152.056 80.2731C155.438 78.2745 158.297 75.9443 160.605 73.2702L157.576 70.6573ZM150.021 76.8294C147.074 78.5711 144.128 79.4058 141.158 79.4058V83.4058C144.921 83.4058 148.563 82.3375 152.056 80.2731L150.021 76.8294ZM141.158 79.4058C140.293 79.4058 139.456 79.3031 138.642 79.0995L137.672 82.9801C138.809 83.2645 139.972 83.4058 141.158 83.4058V79.4058ZM136.564 82.25C138.631 84.9694 141.314 87.0729 144.569 88.5666L146.237 84.9313C143.538 83.6925 141.391 81.9898 139.749 79.8297L136.564 82.25ZM144.604 88.5826C147.863 90.0017 151.184 90.7252 154.552 90.7252V86.7252C151.773 86.7252 148.994 86.1312 146.201 84.9153L144.604 88.5826ZM154.552 90.7252C157.81 90.7252 160.81 90.0555 163.512 88.6769L161.695 85.1138C159.615 86.1751 157.248 86.7252 154.552 86.7252V90.7252ZM163.526 88.6698C166.148 87.3065 168.509 85.5745 170.605 83.4788L167.777 80.6503C165.969 82.4583 163.939 83.9469 161.681 85.1209L163.526 88.6698ZM170.605 83.4788C172.693 81.3914 174.599 79.1034 176.324 76.6172L173.037 74.3369C171.444 76.6327 169.691 78.7364 167.777 80.6503L170.605 83.4788ZM176.319 76.624C178.813 73.0613 180.798 69.218 182.273 65.0989L178.507 63.7506C177.151 67.5365 175.33 71.0614 173.042 74.3301L176.319 76.624ZM182.256 65.1427C182.372 64.8411 182.482 64.77 182.517 64.749L180.459 61.3191C179.518 61.8837 178.895 62.7397 178.523 63.7068L182.256 65.1427ZM182.561 64.7214C182.838 64.5457 183.007 64.5217 183.098 64.5217V60.5217C182.115 60.5217 181.211 60.8393 180.414 61.3467L182.561 64.7214ZM183.098 64.5217C183.397 64.5217 183.635 64.6009 183.874 64.7804L186.274 61.5805C185.342 60.8816 184.263 60.5217 183.098 60.5217V64.5217ZM183.874 64.7804C183.914 64.81 183.933 64.8305 183.94 64.8389C183.947 64.8466 183.946 64.8477 183.944 64.8434C183.942 64.8391 183.943 64.8395 183.945 64.8495C183.948 64.8603 183.952 64.8878 183.952 64.9371H187.952C187.952 63.5757 187.363 62.3973 186.274 61.5805L183.874 64.7804ZM183.952 64.9371C183.952 65.0183 183.937 65.1905 183.866 65.4768L187.746 66.4469C187.87 65.9525 187.952 65.4414 187.952 64.9371H183.952ZM183.92 65.2962C180.769 74.2253 176.355 82.3826 170.679 89.7763L173.852 92.2122C179.789 84.4791 184.402 75.9481 187.692 66.6275L183.92 65.2962ZM170.683 89.7713C165.081 97.0207 158.342 102.155 150.458 105.234L151.913 108.96C160.522 105.598 167.836 99.997 173.848 92.2171L170.683 89.7713ZM150.526 105.209C147.658 106.21 144.758 106.707 141.816 106.707V110.707C145.219 110.707 148.564 110.131 151.845 108.985L150.526 105.209ZM135.831 73.2983C141.722 72.8164 146.707 70.3029 150.701 65.83L147.717 63.1659C144.391 66.8907 140.35 68.9153 135.505 69.3117L135.831 73.2983ZM150.714 65.815C152.19 64.1281 153.473 62.2399 154.566 60.1576L151.025 58.2983C150.068 60.1197 148.96 61.7448 147.704 63.1809L150.714 65.815ZM154.576 60.1397C155.731 57.8847 156.333 55.5492 156.333 53.1528H152.333C152.333 54.8554 151.91 56.57 151.015 58.3162L154.576 60.1397ZM156.326 52.9934C156.199 51.4075 155.636 49.9301 154.4 48.8823C153.192 47.8592 151.633 47.4931 150.014 47.4931V51.4931C151.08 51.4931 151.581 51.7371 151.814 51.9339C152.017 52.1059 152.271 52.4584 152.339 53.3123L156.326 52.9934ZM150.014 47.4931C148.526 47.4931 147.086 47.8366 145.711 48.494L147.437 52.1025C148.307 51.6864 149.16 51.4931 150.014 51.4931V47.4931ZM145.777 48.4641C144.483 49.0266 143.325 49.7444 142.323 50.6285L144.969 53.6278C145.627 53.048 146.421 52.5458 147.371 52.1324L145.777 48.4641ZM142.377 50.5827C139.356 53.0638 137.152 56.2197 135.766 60.0041L139.522 61.3796C140.674 58.235 142.471 55.6817 144.916 53.6736L142.377 50.5827ZM135.766 60.0041C134.422 63.6758 133.72 67.4366 133.668 71.278L137.668 71.332C137.714 67.9516 138.33 64.637 139.522 61.3796L135.766 60.0041ZM186.977 107.683L186.386 109.593L186.413 109.601L186.44 109.609L186.977 107.683ZM181.268 104.755L180.044 106.337L180.056 106.346L180.068 106.355L181.268 104.755ZM174.973 81.9913L173.011 81.6036L173.009 81.6152L174.973 81.9913ZM181.048 57.8373L182.961 58.4238L182.965 58.408L182.97 58.3921L181.048 57.8373ZM189.905 30.7554L191.783 31.443L192.749 28.8059L189.941 28.7558L189.905 30.7554ZM181.707 30.609L181.612 32.6068L181.642 32.6082L181.672 32.6087L181.707 30.609ZM179.145 29.5111L177.731 30.9253L179.145 29.5111ZM178.048 26.8761L176.059 26.66L176.048 26.7678V26.8761H178.048ZM181.854 23.1432L181.88 21.1434L181.761 21.1418L181.642 21.1545L181.854 23.1432ZM192.833 23.2896L192.806 25.2895L194.184 25.3078L194.692 24.0273L192.833 23.2896ZM196.712 14.0672L198.54 14.8794L198.551 14.853L198.562 14.8263L196.712 14.0672ZM199.42 8.50441L197.689 7.50233L197.685 7.50975L197.681 7.5172L199.42 8.50441ZM203.592 3.81998L202.513 2.13622L202.455 2.1734L202.4 2.21449L203.592 3.81998ZM220.207 7.91885H222.207V7.56448L222.086 7.23169L220.207 7.91885ZM218.231 11.7981L216.817 10.3839L216.711 10.4901L216.622 10.6108L218.231 11.7981ZM212.302 23.5824L210.421 22.905L209.465 25.5598L212.286 25.5823L212.302 23.5824ZM221.452 23.6556L221.542 21.6577L221.505 21.656L221.468 21.6557L221.452 23.6556ZM224.087 24.8267L222.625 26.1913L222.648 26.2165L222.672 26.2409L224.087 24.8267ZM225.185 27.4617L227.182 27.5525L227.185 27.5071V27.4617H225.185ZM224.013 30.1699L225.378 31.632L225.403 31.6085L225.428 31.5841L224.013 30.1699ZM221.452 31.1946L221.427 33.1944L221.439 33.1946H221.452V31.1946ZM209.594 31.0482L209.619 29.0484L208.184 29.0306L207.708 30.3843L209.594 31.0482ZM198.835 73.94L200.79 74.3591L200.803 74.3019L200.811 74.2441L198.835 73.94ZM199.42 83.6016L197.571 84.3631L197.615 84.471L197.672 84.5729L199.42 83.6016ZM202.421 86.3098L201.703 88.1765L201.735 88.1887L201.767 88.1998L202.421 86.3098ZM227.014 71.5246L225.291 70.5092L225.286 70.5188L227.014 71.5246ZM231.113 63.6196L229.361 62.6558L229.319 62.7315L229.284 62.8106L231.113 63.6196ZM235.212 63.0341L233.856 64.5037L233.883 64.5286L233.911 64.5526L235.212 63.0341ZM235.944 66.4742L234.116 65.6619L234.116 65.6627L235.944 66.4742ZM218.67 94.2148L220.193 95.5117L220.2 95.5035L220.207 95.4951L218.67 94.2148ZM211.424 101.388L210.147 99.849L210.139 99.855L210.132 99.861L211.424 101.388ZM203.08 106.585L202.281 104.751L202.27 104.756L203.08 106.585ZM193.345 106.561C191.382 106.561 189.441 106.294 187.515 105.756L186.44 109.609C188.71 110.243 191.014 110.561 193.345 110.561V106.561ZM187.569 105.772C185.743 105.207 184.046 104.338 182.468 103.155L180.068 106.355C182.004 107.807 184.112 108.889 186.386 109.593L187.569 105.772ZM182.492 103.173C180.171 101.377 178.61 99.2837 177.728 96.8903L173.975 98.2731C175.143 101.442 177.193 104.131 180.044 106.337L182.492 103.173ZM177.728 96.8903C176.787 94.3349 176.315 91.666 176.315 88.8716H172.315C172.315 92.1279 172.867 95.2657 173.975 98.2731L177.728 96.8903ZM176.315 88.8716C176.315 86.7067 176.522 84.5392 176.938 82.3675L173.009 81.6152C172.547 84.0303 172.315 86.4497 172.315 88.8716H176.315ZM176.935 82.3791C178.532 74.2973 180.541 66.3123 182.961 58.4238L179.136 57.2508C176.677 65.2698 174.635 73.3875 173.011 81.6036L176.935 82.3791ZM182.97 58.3921C185.592 49.3121 188.53 40.3291 191.783 31.443L188.027 30.0678C184.742 39.0412 181.775 48.1127 179.127 57.2824L182.97 58.3921ZM189.941 28.7558L181.743 28.6094L181.672 32.6087L189.869 32.7551L189.941 28.7558ZM181.802 28.6113C181.241 28.5846 180.868 28.4052 180.56 28.0969L177.731 30.9253C178.789 31.9834 180.124 32.5359 181.612 32.6068L181.802 28.6113ZM180.56 28.0969C180.198 27.7358 180.048 27.3644 180.048 26.8761H176.048C176.048 28.4373 176.628 29.8226 177.731 30.9253L180.56 28.0969ZM180.036 27.0923C180.122 26.3027 180.359 25.9063 180.582 25.6873C180.81 25.4641 181.232 25.2207 182.065 25.132L181.642 21.1545C180.182 21.3098 178.823 21.8105 177.782 22.8316C176.736 23.8569 176.217 25.205 176.059 26.66L180.036 27.0923ZM181.827 25.1431L192.806 25.2895L192.859 21.2898L181.88 21.1434L181.827 25.1431ZM194.692 24.0273C195.902 20.9787 197.184 17.9294 198.54 14.8794L194.884 13.2549C193.507 16.3533 192.204 19.4523 190.974 22.5519L194.692 24.0273ZM198.562 14.8263C199.311 13.0023 200.176 11.2241 201.16 9.49162L197.681 7.5172C196.615 9.39558 195.675 11.326 194.862 13.3081L198.562 14.8263ZM201.151 9.50648C202.089 7.88619 203.297 6.53059 204.785 5.42547L202.4 2.21449C200.472 3.64677 198.898 5.41412 197.689 7.50233L201.151 9.50648ZM204.672 5.50374C206.22 4.51092 208.034 3.99012 210.18 3.99012V-0.00987625C207.349 -0.00987625 204.77 0.689236 202.513 2.13622L204.672 5.50374ZM210.18 3.99012C212.011 3.99012 213.723 4.40314 215.342 5.23364L217.167 1.67437C214.981 0.553036 212.643 -0.00987625 210.18 -0.00987625V3.99012ZM215.342 5.23364C216.799 5.98089 217.771 7.08013 218.329 8.60602L222.086 7.23169C221.18 4.7563 219.516 2.87897 217.167 1.67437L215.342 5.23364ZM218.207 7.91885V8.21163H222.207V7.91885H218.207ZM218.207 8.21163C218.207 8.31152 218.163 8.62922 217.729 9.20745L220.929 11.6075C221.666 10.6242 222.207 9.47803 222.207 8.21163H218.207ZM217.729 9.20745C217.441 9.59191 217.214 9.88818 217.046 10.1014C216.853 10.3452 216.794 10.4064 216.817 10.3839L219.645 13.2124C219.918 12.9402 220.385 12.3332 220.929 11.6075L217.729 9.20745ZM216.622 10.6108C214.275 13.7918 212.219 17.9103 210.421 22.905L214.184 24.2598C215.899 19.4953 217.796 15.7576 219.841 12.9854L216.622 10.6108ZM212.286 25.5823L221.436 25.6555L221.468 21.6557L212.318 21.5825L212.286 25.5823ZM221.361 25.6535C221.954 25.6805 222.326 25.8715 222.625 26.1913L225.549 23.4621C224.481 22.3181 223.096 21.7283 221.542 21.6577L221.361 25.6535ZM222.672 26.2409C223.034 26.6021 223.185 26.9734 223.185 27.4617H227.185C227.185 25.9005 226.604 24.5152 225.501 23.4125L222.672 26.2409ZM223.187 27.3709C223.16 27.9668 222.964 28.3911 222.599 28.7557L225.428 31.5841C226.527 30.4847 227.112 29.1036 227.182 27.5525L223.187 27.3709ZM222.649 28.7078C222.277 29.0552 221.907 29.1946 221.452 29.1946V33.1946C222.949 33.1946 224.286 32.6509 225.378 31.632L222.649 28.7078ZM221.476 29.1947L209.619 29.0484L209.57 33.0481L221.427 33.1944L221.476 29.1947ZM207.708 30.3843C202.738 44.505 199.121 58.9227 196.858 73.6359L200.811 74.2441C203.037 59.7772 206.593 45.6004 211.481 31.7121L207.708 30.3843ZM196.879 73.5209C196.553 75.0439 196.395 76.6745 196.395 78.4048H200.395C200.395 76.9146 200.531 75.5686 200.79 74.3591L196.879 73.5209ZM196.395 78.4048C196.395 80.4698 196.788 82.4609 197.571 84.3631L201.27 82.8401C200.687 81.4242 200.395 79.9507 200.395 78.4048H196.395ZM197.672 84.5729C198.605 86.2528 199.948 87.5016 201.703 88.1765L203.139 84.4431C202.357 84.1421 201.699 83.5854 201.169 82.6303L197.672 84.5729ZM201.767 88.1998C203.271 88.7204 204.886 88.9686 206.593 88.9686V84.9686C205.275 84.9686 204.109 84.7776 203.075 84.4198L201.767 88.1998ZM206.593 88.9686C209.915 88.9686 212.999 88.147 215.805 86.4966L213.777 83.0489C211.605 84.3262 209.225 84.9686 206.593 84.9686V88.9686ZM215.805 86.4966C218.492 84.9161 220.924 82.8713 223.103 80.3806L220.093 77.7466C218.173 79.9403 216.067 81.7016 213.777 83.0489L215.805 86.4966ZM223.103 80.3806C225.237 77.9423 227.117 75.3251 228.743 72.5304L225.286 70.5188C223.789 73.0917 222.058 75.5005 220.093 77.7466L223.103 80.3806ZM228.737 72.54C230.382 69.7499 231.785 67.046 232.942 64.4286L229.284 62.8106C228.197 65.2681 226.868 67.8341 225.291 70.5092L228.737 72.54ZM232.866 64.5835C233.035 64.2762 233.159 64.1717 233.191 64.1492C233.203 64.1401 233.2 64.145 233.182 64.1506C233.164 64.1564 233.155 64.1557 233.163 64.1557V60.1557C231.356 60.1557 230.111 61.2917 229.361 62.6558L232.866 64.5835ZM233.163 64.1557C233.304 64.1557 233.52 64.1941 233.856 64.5037L236.569 61.5645C235.635 60.7029 234.486 60.1557 233.163 60.1557V64.1557ZM233.911 64.5526C234.163 64.7688 234.237 64.9516 234.237 65.2299H238.237C238.237 63.7515 237.628 62.4704 236.514 61.5155L233.911 64.5526ZM234.237 65.2299C234.237 65.2836 234.224 65.4209 234.116 65.6619L237.772 67.2865C238.055 66.6492 238.237 65.9569 238.237 65.2299H234.237ZM234.116 65.6627C229.751 75.4952 224.092 84.5845 217.134 92.9344L220.207 95.4951C227.399 86.864 233.256 77.4595 237.772 67.2856L234.116 65.6627ZM217.148 92.9178C214.976 95.4679 212.642 97.7775 210.147 99.849L212.702 102.927C215.379 100.704 217.876 98.2316 220.193 95.5117L217.148 92.9178ZM210.132 99.861C207.742 101.883 205.127 103.512 202.281 104.751L203.878 108.418C207.084 107.022 210.031 105.186 212.716 102.915L210.132 99.861ZM202.27 104.756C199.569 105.952 196.602 106.561 193.345 106.561V110.561C197.115 110.561 200.638 109.853 203.889 108.413L202.27 104.756ZM247.875 105.853L246.749 107.506L246.797 107.538L246.846 107.568L247.875 105.853ZM242.824 99.9971L241 100.816L241.003 100.823L241.006 100.83L242.824 99.9971ZM241.214 92.3849L239.218 92.2602L239.214 92.3225V92.3849H241.214ZM245.679 74.306L243.855 73.4852L243.852 73.4923L245.679 74.306ZM254.535 56.0074L256.313 56.9237L257.816 54.0074H254.535V56.0074ZM240.116 53.592L241.043 51.8196L238.804 50.6496L238.179 53.0964L240.116 53.592ZM236.383 65.8154L238.222 66.6033L238.246 66.5471L238.266 66.4896L236.383 65.8154ZM231.699 67.0597L230.347 68.534L230.377 68.5609L230.407 68.5865L231.699 67.0597ZM230.967 64.2784L229.086 63.5991L229.077 63.6224L229.07 63.6459L230.967 64.2784ZM235.285 49.054L237.247 49.4462L237.389 48.7339L237.041 48.0963L235.285 49.054ZM234.261 38.2212L232.391 37.5119L232.384 37.5302L232.377 37.5486L234.261 38.2212ZM236.456 34.7079L235.079 33.2579L235.06 33.2756L235.042 33.2937L236.456 34.7079ZM242.824 35.879L240.875 36.3247L241.09 37.2665L241.961 37.6833L242.824 35.879ZM249.046 37.3429L248.798 39.3275L248.921 39.3429H249.046V37.3429ZM249.119 37.3429L249.348 35.3561L249.234 35.3429H249.119V37.3429ZM256.658 37.9285L256.745 35.9303L256.736 35.93L256.658 37.9285ZM273.419 38.514L273.748 36.5412L273.611 36.5184L273.472 36.5147L273.419 38.514ZM276.055 40.7098L274.11 41.1766L274.154 41.363L274.234 41.5374L276.055 40.7098ZM275.615 46.5654L273.763 45.8108L273.742 45.8624L273.724 45.9152L275.615 46.5654ZM270.711 60.9846L268.816 60.3465L268.813 60.355L268.81 60.3635L270.711 60.9846ZM267.125 75.6967L269.086 76.0889L269.094 76.0509L269.1 76.0126L267.125 75.6967ZM268.15 85.1387L266.522 86.3012L266.536 86.3201L266.55 86.3387L268.15 85.1387ZM278.25 85.7243L279.222 87.4726L279.23 87.4681L279.238 87.4636L278.25 85.7243ZM283.008 82.3573L281.7 80.8443L281.688 80.8548L281.676 80.8654L283.008 82.3573ZM289.888 74.1596L291.623 75.1549L291.63 75.1428L289.888 74.1596ZM294.426 64.2784L292.56 63.5604L292.555 63.5725L292.55 63.5846L294.426 64.2784ZM295.524 62.8877L294.566 61.1319L294.53 61.1516L294.495 61.1727L295.524 62.8877ZM299.111 63.1073L297.911 64.7073L297.955 64.7406L298.001 64.7714L299.111 63.1073ZM299.843 65.8154L301.714 66.5216L301.743 66.4443L301.766 66.3649L299.843 65.8154ZM296.622 73.4276L294.812 72.576L294.756 72.6955L294.716 72.8212L296.622 73.4276ZM295.012 76.7214L293.337 75.6288L293.268 75.7336L293.214 75.8461L295.012 76.7214ZM271.736 104.389L270.652 102.708L270.646 102.712L270.64 102.716L271.736 104.389ZM257.902 106.707C254.771 106.707 251.782 105.864 248.904 104.138L246.846 107.568C250.311 109.647 254.007 110.707 257.902 110.707V106.707ZM249 104.199C246.984 102.827 245.552 101.149 244.642 99.1638L241.006 100.83C242.243 103.529 244.179 105.756 246.749 107.506L249 104.199ZM244.649 99.1779C243.694 97.0508 243.214 94.7933 243.214 92.3849H239.214C239.214 95.3441 239.808 98.1614 241 100.816L244.649 99.1779ZM243.21 92.5097C243.585 86.5055 245.015 80.7122 247.506 75.1197L243.852 73.4923C241.17 79.5132 239.623 85.7726 239.218 92.2602L243.21 92.5097ZM247.503 75.1267C250.122 69.3067 253.058 63.2391 256.313 56.9237L252.758 55.0912C249.474 61.4627 246.506 67.5941 243.855 73.4852L247.503 75.1267ZM254.535 54.0074C252.112 54.0074 249.689 53.8886 247.265 53.651L246.874 57.6319C249.428 57.8822 251.981 58.0074 254.535 58.0074V54.0074ZM247.265 53.651C245.023 53.4312 242.955 52.8191 241.043 51.8196L239.19 55.3645C241.572 56.6096 244.139 57.3637 246.874 57.6319L247.265 53.651ZM238.179 53.0964C237.12 57.2344 235.894 61.2492 234.5 65.1413L238.266 66.4896C239.703 62.4767 240.965 58.3426 242.054 54.0877L238.179 53.0964ZM234.545 65.0276C234.347 65.4885 234.161 65.6814 234.06 65.7577C233.984 65.8155 233.885 65.8649 233.675 65.8649V69.8649C234.685 69.8649 235.648 69.5727 236.474 68.9473C237.276 68.3405 237.834 67.5086 238.222 66.6033L234.545 65.0276ZM233.675 65.8649C233.562 65.8649 233.345 65.8329 232.991 65.533L230.407 68.5865C231.321 69.3601 232.422 69.8649 233.675 69.8649V65.8649ZM233.05 65.5854C232.87 65.42 232.821 65.2926 232.821 65.0835H228.821C228.821 66.4359 229.357 67.626 230.347 68.534L233.05 65.5854ZM232.821 65.0835C232.821 65.1028 232.817 65.0511 232.864 64.9108L229.07 63.6459C228.921 64.0911 228.821 64.5763 228.821 65.0835H232.821ZM232.848 64.9576C234.781 59.6056 236.249 54.4346 237.247 49.4462L233.324 48.6617C232.37 53.4325 230.959 58.4112 229.086 63.5991L232.848 64.9576ZM237.041 48.0963C236.026 46.236 235.529 44.2954 235.529 42.2469H231.529C231.529 44.9804 232.202 47.5779 233.53 50.0117L237.041 48.0963ZM235.529 42.2469C235.529 41.1807 235.725 40.0661 236.144 38.8939L232.377 37.5486C231.82 39.109 231.529 40.6781 231.529 42.2469H235.529ZM236.131 38.9305C236.582 37.7394 237.172 36.8206 237.871 36.1221L235.042 33.2937C233.886 34.4495 233.012 35.8729 232.391 37.5119L236.131 38.9305ZM237.834 36.1579C238.432 35.5898 239.108 35.3172 239.97 35.3172V31.3172C238.099 31.3172 236.433 31.9718 235.079 33.2579L237.834 36.1579ZM239.97 35.3172C240.329 35.3172 240.439 35.4072 240.482 35.4462C240.555 35.5119 240.738 35.7278 240.875 36.3247L244.774 35.4334C244.52 34.3224 244.032 33.2574 243.154 32.4692C242.246 31.6542 241.124 31.3172 239.97 31.3172V35.3172ZM241.961 37.6833C243.205 38.2781 244.418 38.6948 245.587 38.8793L246.21 34.9282C245.525 34.82 244.688 34.5535 243.687 34.0748L241.961 37.6833ZM245.587 38.8793C246.54 39.0297 247.61 39.1791 248.798 39.3275L249.294 35.3584C248.139 35.214 247.112 35.0705 246.21 34.9282L245.587 38.8793ZM249.046 39.3429H249.119V35.3429H249.046V39.3429ZM248.89 39.3297C251.476 39.6281 254.039 39.8273 256.58 39.9269L256.736 35.93C254.299 35.8344 251.837 35.6432 249.348 35.3561L248.89 39.3297ZM256.571 39.9266C262.194 40.171 267.793 40.3666 273.367 40.5133L273.472 36.5147C267.921 36.3686 262.345 36.1738 256.745 35.9304L256.571 39.9266ZM273.091 40.4868C273.574 40.5674 273.799 40.7019 273.896 40.7824C273.972 40.8456 274.054 40.9424 274.11 41.1766L277.999 40.2431C277.763 39.2573 277.259 38.3782 276.457 37.7095C275.675 37.0581 274.729 36.7046 273.748 36.5412L273.091 40.4868ZM274.234 41.5374C274.342 41.7762 274.42 42.097 274.42 42.5397H278.42C278.42 41.6161 278.255 40.717 277.875 39.8822L274.234 41.5374ZM274.42 42.5397C274.42 43.6366 274.206 44.7228 273.763 45.8108L277.468 47.32C278.098 45.7729 278.42 44.1754 278.42 42.5397H274.42ZM273.724 45.9152C272.112 50.6039 270.476 55.4143 268.816 60.3465L272.607 61.6227C274.265 56.6981 275.898 51.8957 277.507 47.2155L273.724 45.9152ZM268.81 60.3635C267.169 65.3867 265.948 70.3926 265.15 75.3807L269.1 76.0126C269.863 71.2415 271.033 66.4394 272.612 61.6058L268.81 60.3635ZM265.164 75.3044C264.845 76.8992 264.686 78.5189 264.686 80.1615H268.686C268.686 78.7788 268.819 77.4219 269.086 76.0889L265.164 75.3044ZM264.686 80.1615C264.686 82.4603 265.266 84.5429 266.522 86.3012L269.777 83.9762C269.081 83.0019 268.686 81.7664 268.686 80.1615H264.686ZM266.55 86.3387C268.029 88.312 270.223 89.1881 272.761 89.1881V85.1881C271.199 85.1881 270.319 84.698 269.75 83.9387L266.55 86.3387ZM272.761 89.1881C275.023 89.1881 277.185 88.604 279.222 87.4726L277.279 83.9759C275.802 84.7964 274.305 85.1881 272.761 85.1881V89.1881ZM279.238 87.4636C281.15 86.378 282.855 85.1751 284.34 83.8492L281.676 80.8654C280.428 81.9793 278.961 83.0211 277.263 83.9849L279.238 87.4636ZM284.316 83.8704C287.347 81.2504 289.791 78.3469 291.623 75.1549L288.153 73.1642C286.569 75.9253 284.427 78.487 281.7 80.8443L284.316 83.8704ZM291.63 75.1428C293.395 72.0165 294.951 68.625 296.302 64.9722L292.55 63.5846C291.267 67.0559 289.797 70.2519 288.147 73.1764L291.63 75.1428ZM296.293 64.9963C296.409 64.6947 296.518 64.6236 296.553 64.6027L294.495 61.1727C293.554 61.7373 292.931 62.5934 292.56 63.5604L296.293 64.9963ZM296.482 64.6435C296.738 64.5036 296.972 64.4485 297.208 64.4485V60.4485C296.272 60.4485 295.384 60.6862 294.566 61.1319L296.482 64.6435ZM297.208 64.4485C297.426 64.4485 297.645 64.508 297.911 64.7073L300.311 61.5073C299.405 60.8282 298.355 60.4485 297.208 60.4485V64.4485ZM298.001 64.7714C298.027 64.7886 298.032 64.7957 298.025 64.7886C298.022 64.7853 298.018 64.7797 298.012 64.7718C298.006 64.764 298.001 64.7552 297.996 64.746C297.991 64.7369 297.988 64.7289 297.986 64.7228C297.984 64.7168 297.983 64.7141 297.983 64.7154C297.984 64.718 297.989 64.7411 297.989 64.7907H301.989C301.989 63.4222 301.388 62.2219 300.22 61.4432L298.001 64.7714ZM297.989 64.7907C297.989 64.9391 297.968 65.0959 297.92 65.266L301.766 66.3649C301.912 65.8518 301.989 65.3255 301.989 64.7907H297.989ZM297.971 65.1093C297.014 67.6465 295.961 70.1353 294.812 72.576L298.432 74.2792C299.625 71.7427 300.719 69.1568 301.714 66.5216L297.971 65.1093ZM294.716 72.8212C294.438 73.6942 293.988 74.6298 293.337 75.6288L296.687 77.8139C297.499 76.5683 298.123 75.3081 298.528 74.034L294.716 72.8212ZM293.214 75.8461C290.594 81.2289 287.427 86.2527 283.712 90.9198L286.842 93.4108C290.739 88.5139 294.062 83.2417 296.81 77.5966L293.214 75.8461ZM283.712 90.9198C280.044 95.5287 275.693 99.457 270.652 102.708L272.82 106.07C278.221 102.587 282.898 98.366 286.842 93.4108L283.712 90.9198ZM270.64 102.716C266.544 105.401 262.31 106.707 257.902 106.707V110.707C263.157 110.707 268.145 109.135 272.833 106.061L270.64 102.716ZM729.685 12.4197L729.392 12.3465L728.422 16.227L728.715 16.3002L729.685 12.4197ZM728.422 16.227L728.715 16.3002L729.685 12.4197L729.392 12.3465L728.422 16.227ZM310.309 108.561L310.013 110.539L310.066 110.547L310.12 110.552L310.309 108.561ZM298.525 103.071L297.111 104.485L297.117 104.491L297.123 104.497L298.525 103.071ZM292.157 92.3849L294.065 91.7858L294.063 91.779L294.061 91.7722L292.157 92.3849ZM292.45 64.8639L294.349 65.4905L294.351 65.4847L292.45 64.8639ZM298.964 51.9817L297.352 50.7981L297.349 50.8017L298.964 51.9817ZM308.992 42.7593L307.979 41.0348L307.969 41.0405L308.992 42.7593ZM330.218 41.0758L329.418 42.9089L329.432 42.915L329.447 42.921L330.218 41.0758ZM337.318 46.2726L335.813 47.5896L335.834 47.6138L335.856 47.6372L337.318 46.2726ZM341.27 52.9333L343.166 52.2942L343.141 52.2206L343.11 52.1491L341.27 52.9333ZM342.661 75.1843L340.687 74.8658L340.38 76.7677L342.269 77.1455L342.661 75.1843ZM350.786 73.7936L349.743 72.087L349.732 72.0936L349.721 72.1003L350.786 73.7936ZM355.397 69.4752L357.013 70.6541L357.027 70.634L357.041 70.6136L355.397 69.4752ZM358.544 63.8392L360.388 64.6153L356.755 62.9448L358.544 63.8392ZM358.325 64.2784L356.477 63.5137L360.114 65.1728L358.325 64.2784ZM362.936 62.9609L361.585 64.4352L361.614 64.462L361.644 64.4876L362.936 62.9609ZM363.741 65.7422L361.884 64.9995L361.873 65.0282L361.862 65.0572L363.741 65.7422ZM354.958 78.2584L356.271 79.7669L356.281 79.7581L354.958 78.2584ZM340.392 84.5531L340.183 82.5641L338.917 82.6974L338.502 83.9005L340.392 84.5531ZM325.461 105.194L324.362 103.523L325.461 105.194ZM323.557 85.1387L324.704 86.7772L324.722 86.7645L324.74 86.7515L323.557 85.1387ZM327.364 81.0398L329.043 82.1263L330.089 80.5092L328.512 79.4027L327.364 81.0398ZM332.194 65.2299H334.194V63.1088L332.077 63.2333L332.194 65.2299ZM332.194 65.3031H330.194L334.194 65.3619L332.194 65.3031ZM332.268 62.8145L334.267 62.8733L334.268 62.8439V62.8145H332.268ZM331.17 55.0559L329.227 55.5329L329.232 55.5532L329.238 55.5734L331.17 55.0559ZM327.217 49.5663L328.038 47.7425L327.859 47.6618L327.667 47.6176L327.217 49.5663ZM321.435 50.3715L320.487 48.6105L320.457 48.6267L320.427 48.6439L321.435 50.3715ZM315.799 56.3002L314.044 55.3402L314.038 55.352L315.799 56.3002ZM312.652 63.9124L314.549 64.5448L314.562 64.506L314.573 64.4667L312.652 63.9124ZM317.848 86.6758L317.639 88.6648L317.743 88.6758H317.848V86.6758ZM313.31 106.707C312.401 106.707 311.464 106.662 310.499 106.57L310.12 110.552C311.204 110.655 312.268 110.707 313.31 110.707V106.707ZM310.606 106.583C306.066 105.902 302.551 104.226 299.928 101.645L297.123 104.497C300.452 107.772 304.794 109.756 310.013 110.539L310.606 106.583ZM299.939 101.657C297.254 98.9714 295.292 95.6945 294.065 91.7858L290.249 92.984C291.657 97.4683 293.941 101.316 297.111 104.485L299.939 101.657ZM294.061 91.7722C292.757 87.7218 292.108 83.61 292.108 79.4296H288.108C288.108 84.0324 288.824 88.5575 290.253 92.9977L294.061 91.7722ZM292.108 79.4296C292.108 74.6655 292.854 70.0218 294.349 65.4905L290.551 64.2373C288.923 69.1724 288.108 74.2392 288.108 79.4296H292.108ZM294.351 65.4847C295.852 60.8896 297.93 56.7866 300.579 53.1618L297.349 50.8017C294.436 54.789 292.171 59.2742 290.549 64.2431L294.351 65.4847ZM300.576 53.1654C303.259 49.5121 306.405 46.6255 310.014 44.4781L307.969 41.0405C303.869 43.4799 300.33 46.7416 297.352 50.7981L300.576 53.1654ZM310.005 44.4837C313.597 42.3732 317.492 41.3192 321.728 41.3192V37.3192C316.789 37.3192 312.194 38.5585 307.979 41.0349L310.005 44.4837ZM321.728 41.3192C324.434 41.3192 326.991 41.8497 329.418 42.9089L331.018 39.2427C328.078 37.9597 324.975 37.3192 321.728 37.3192V41.3192ZM329.447 42.921C331.829 43.9174 333.95 45.4607 335.813 47.5896L338.823 44.9556C336.587 42.4001 333.975 40.4789 330.99 39.2307L329.447 42.921ZM335.856 47.6372C336.996 48.8589 338.204 50.8398 339.431 53.7175L343.11 52.1491C341.799 49.0736 340.372 46.6141 338.78 44.908L335.856 47.6372ZM339.375 53.5723C340.719 57.5578 341.393 61.7088 341.393 66.035H345.393C345.393 61.2851 344.652 56.7017 343.166 52.2942L339.375 53.5723ZM341.393 66.035C341.393 69.0029 341.158 71.9461 340.687 74.8658L344.636 75.5028C345.141 72.3718 345.393 69.2155 345.393 66.035H341.393ZM342.269 77.1455C343.136 77.3188 344.024 77.4039 344.93 77.4039V73.4039C344.275 73.4039 343.65 73.3425 343.053 73.2231L342.269 77.1455ZM344.93 77.4039C347.468 77.4039 349.795 76.7785 351.85 75.4869L349.721 72.1003C348.36 72.9558 346.784 73.4039 344.93 73.4039V77.4039ZM351.829 75.5002C353.827 74.2787 355.554 72.653 357.013 70.6541L353.781 68.2962C352.605 69.9082 351.257 71.1615 349.743 72.087L351.829 75.5002ZM357.041 70.6136C358.426 68.6135 359.546 66.6142 360.388 64.6153L356.701 63.0631C355.981 64.7727 355.003 66.5307 353.753 68.3367L357.041 70.6136ZM356.755 62.9448L356.536 63.3839L360.114 65.1728L360.333 64.7336L356.755 62.9448ZM360.173 65.0431C360.376 64.5508 360.57 64.3424 360.675 64.2605C360.751 64.2009 360.84 64.1557 361.033 64.1557V60.1557C360.006 60.1557 359.034 60.4643 358.207 61.1123C357.409 61.738 356.859 62.5908 356.477 63.5137L360.173 65.0431ZM361.033 64.1557C361.135 64.1557 361.304 64.1778 361.585 64.4352L364.287 61.4866C363.397 60.6704 362.297 60.1557 361.033 60.1557V64.1557ZM361.644 64.4876C361.83 64.6451 361.887 64.7702 361.887 65.0103H365.887C365.887 63.5913 365.31 62.3501 364.228 61.4341L361.644 64.4876ZM361.887 65.0103C361.887 65.0045 361.888 64.9991 361.888 64.9943C361.889 64.9895 361.889 64.986 361.89 64.984C361.891 64.9798 361.89 64.9846 361.884 64.9995L365.598 66.485C365.783 66.0231 365.887 65.5278 365.887 65.0103H361.887ZM361.862 65.0572C360.281 69.3947 357.56 73.2953 353.635 76.7588L356.281 79.7581C360.651 75.9022 363.786 71.4586 365.62 66.4273L361.862 65.0572ZM353.645 76.75C349.812 80.0863 345.344 82.0208 340.183 82.5641L340.602 86.5422C346.565 85.9144 351.808 83.6525 356.271 79.7669L353.645 76.75ZM338.502 83.9005C337.145 87.8288 335.274 91.5498 332.883 95.0664L336.19 97.3156C338.776 93.5128 340.809 89.4752 342.283 85.2058L338.502 83.9005ZM332.883 95.0664C330.536 98.5178 327.696 101.33 324.362 103.523L326.559 106.865C330.349 104.373 333.56 101.184 336.19 97.3156L332.883 95.0664ZM324.362 103.523C321.147 105.636 317.484 106.707 313.31 106.707V110.707C318.212 110.707 322.65 109.436 326.559 106.865L324.362 103.523ZM318.507 88.6758C320.792 88.6758 322.882 88.0529 324.704 86.7772L322.411 83.5002C321.305 84.274 320.028 84.6758 318.507 84.6758V88.6758ZM324.74 86.7515C326.417 85.522 327.849 83.9714 329.043 82.1263L325.684 79.9533C324.731 81.4264 323.626 82.6084 322.375 83.5259L324.74 86.7515ZM328.512 79.4027C326.166 77.7561 325.192 75.8846 325.192 73.7204H321.192C321.192 77.4117 322.998 80.4198 326.215 82.6769L328.512 79.4027ZM325.192 73.7204C325.192 71.8894 325.834 70.461 327.155 69.2865L324.498 66.2969C322.306 68.2453 321.192 70.7694 321.192 73.7204H325.192ZM327.155 69.2865C328.555 68.0425 330.243 67.3482 332.312 67.2264L332.077 63.2333C329.169 63.4044 326.612 64.4179 324.498 66.2969L327.155 69.2865ZM330.194 65.2299V65.3031H334.194V65.2299H330.194ZM334.194 65.3619L334.267 62.8733L330.268 62.7557L330.195 65.2443L334.194 65.3619ZM334.268 62.8145C334.268 60.1748 333.872 57.4136 333.102 54.5384L329.238 55.5734C329.932 58.1634 330.268 60.5746 330.268 62.8145H334.268ZM333.112 54.5788C332.335 51.4171 330.727 48.9527 328.038 47.7425L326.396 51.3902C327.611 51.9366 328.638 53.1319 329.227 55.5329L333.112 54.5788ZM327.667 47.6176C326.889 47.438 326.104 47.3468 325.314 47.3468V51.3468C325.793 51.3468 326.277 51.4019 326.767 51.5151L327.667 47.6176ZM325.314 47.3468C323.635 47.3468 322.019 47.7855 320.487 48.6105L322.383 52.1324C323.388 51.5911 324.358 51.3468 325.314 51.3468V47.3468ZM320.427 48.6439C317.744 50.2093 315.618 52.4638 314.044 55.3402L317.553 57.2602C318.81 54.9642 320.442 53.2663 322.443 52.099L320.427 48.6439ZM314.038 55.352C312.61 58.0033 311.505 60.6723 310.73 63.3581L314.573 64.4667C315.262 62.0777 316.255 59.6719 317.56 57.2484L314.038 55.352ZM310.754 63.2799C310.231 64.8489 309.749 66.7654 309.3 69.0097L313.222 69.7942C313.651 67.6469 314.096 65.9037 314.549 64.5448L310.754 63.2799ZM309.3 69.0097C308.835 71.335 308.602 73.6866 308.602 76.0626H312.602C312.602 73.9494 312.809 71.8606 313.222 69.7942L309.3 69.0097ZM308.602 76.0626C308.602 79.0039 309.165 81.6859 310.35 84.0569L313.928 82.268C313.064 80.5401 312.602 78.4889 312.602 76.0626H308.602ZM310.35 84.0569C311.751 86.8572 314.351 88.3187 317.639 88.6648L318.058 84.6868C315.783 84.4473 314.577 83.5666 313.928 82.268L310.35 84.0569ZM317.848 88.6758H318.507V84.6758H317.848V88.6758Z" fill="#1A1A1A" mask="url(#path-1-outside-1_4_3)"/>
</g>
<defs>
<filter id="filter0_d_4_3" x="0.236084" y="0.233459" width="728.963" height="156.877" filterUnits="userSpaceOnUse" color-interpolation-filters="sRGB">
<feFlood flood-opacity="0" result="BackgroundImageFix"/>
<feColorMatrix in="SourceAlpha" type="matrix" values="0 0 0 0 0 0 0 0 0 0 0 0 0 0 0 0 0 0 127 0" result="hardAlpha"/>
<feOffset dx="-5" dy="8"/>
<feComposite in2="hardAlpha" operator="out"/>
<feColorMatrix type="matrix" values="0 0 0 0 0.1 0 0 0 0 0.1 0 0 0 0 0.1 0 0 0 1 0"/>
<feBlend mode="normal" in2="BackgroundImageFix" result="effect1_dropShadow_4_3"/>
<feBlend mode="normal" in="SourceGraphic" in2="effect1_dropShadow_4_3" result="shape"/>
</filter>
</defs>
</svg>
